<?xml version="1.0" encoding="UTF-8"?><svg xmlns="http://www.w3.org/2000/svg" xmlns:xlink="http://www.w3.org/1999/xlink" viewBox="0 0 796.21 580.32"><defs><radialGradient id="radial-gradient" cx="537.49" cy="371.33" fx="537.49" fy="371.33" r="195.02" gradientUnits="userSpaceOnUse"><stop offset=".46" stop-color="#fde13a"/><stop offset="1" stop-color="#f89c3d"/></radialGradient><radialGradient id="radial-gradient-2" cx="455.37" cy="304.36" fx="455.37" fy="304.36" r="203.84" xlink:href="#radial-gradient"/><radialGradient id="radial-gradient-3" cx="11254.02" cy="5954.01" fx="11254.02" fy="5954.01" r="246.03" gradientTransform="translate(11822.87 5674.59) rotate(176.89)" xlink:href="#radial-gradient"/><radialGradient id="radial-gradient-4" cx="395.96" cy="286.06" fx="395.96" fy="286.06" r="130.25" xlink:href="#radial-gradient"/><radialGradient id="radial-gradient-5" cx="533.2" cy="337.69" fx="533.2" fy="337.69" r="33.97" xlink:href="#radial-gradient"/><radialGradient id="radial-gradient-6" cx="121.87" cy="444" fx="121.87" fy="444" r="58.96" gradientUnits="userSpaceOnUse"><stop offset=".46" stop-color="#fde13a"/><stop offset="1" stop-color="#f89c3d"/></radialGradient><radialGradient id="radial-gradient-7" cx="362.55" cy="216.6" fx="362.55" fy="216.6" r="241.73" xlink:href="#radial-gradient"/></defs><g id="Layer_1"><polygon points="615.03 431.76 796.21 497.17 655.72 409.73 699.68 416.56 659.13 392.49 696.55 390.48 623.57 352.04 569.13 386.13 417.36 402.02 400.03 436.46 615.03 431.76" fill="url(#radial-gradient)" stroke-width="0"/><polygon points="526.39 385.97 713.9 457.97 555.66 360.65 617.66 345.33 577.11 321.26 614.54 319.25 541.55 280.82 487.12 314.9 335.34 330.79 318.02 365.23 526.39 385.97" fill="url(#radial-gradient-2)" stroke-width="0"/><polygon points="0 549.14 197.34 411.64 163.38 462.66 218.75 422.52 200.43 469.01 318.91 379.5 246.88 295.26 0 549.14" fill="url(#radial-gradient-3)" stroke-width="0"/><polygon points="516.59 354.55 573.6 359.33 557.28 332.51 568.32 327.42 560.69 315.28 558.83 304.47 525.13 274.83 470.69 308.92 318.91 324.8 301.59 359.24 516.59 354.55" fill="url(#radial-gradient-4)" stroke-width="0"/><polygon points="574.65 361.97 508.7 313.41 491.74 333.41 574.65 361.97" fill="url(#radial-gradient-5)" stroke-width="0"/><polygon points="61.23 501.22 182.51 410.1 170.54 386.78 61.23 501.22" fill="url(#radial-gradient-6)" stroke-width="0"/><polygon points="630.17 0 425.66 126.6 462.34 77.49 404.87 114.57 425.69 69.14 309.5 151.85 372.95 266.95 630.17 0" fill="url(#radial-gradient-7)" stroke-width="0"/><polygon points="577.86 38.69 408.85 144.89 436.78 102.41 391.67 134.8 406.5 93.83 328.75 154.57 359.38 231.66 577.86 38.69" fill="#f89c3d" stroke-width="0"/><path d="M575.15,320.68c2.16-2.01,3.5-4.87,3.45-8.05l-2.25-168.39c-.08-5.97-4.98-10.74-10.95-10.66l-170.26,2.28c-3.18.04-6,1.46-7.95,3.67-.26.24-10.23,10.49-10.47,10.75-.26.24-.51.5-.75.77-2.16,2.01-3.5,4.87-3.45,8.05l2.25,168.39c.08,5.97,4.98,10.74,10.95,10.66l170.26-2.28c3.18-.04,6-1.46,7.95-3.67.26-.24,10.98-11.25,11.22-11.52Z" fill="#272f5a" stroke-width="0"/><path d="M559.54,145.64c3.19,0,5.82,2.58,5.86,5.74l2.12,158.25c.02,1.55-.57,3.02-1.66,4.13-1.09,1.12-2.56,1.75-4.14,1.77l-160.8,2.15h-.08c-3.19,0-5.82-2.57-5.87-5.74l-2.12-158.25c-.04-3.21,2.56-5.85,5.79-5.9l160.8-2.15h.08M559.54,141.31s-.09,0-.14,0l-160.8,2.15c-5.63.08-10.14,4.68-10.07,10.29l2.12,158.25c.07,5.56,4.63,10.02,10.2,10.02.05,0,.09,0,.14,0l160.8-2.15c5.63-.08,10.14-4.68,10.07-10.29l-2.12-158.25c-.07-5.56-4.63-10.02-10.2-10.01h0Z" fill="#fff" stroke-width="0"/><path d="M549.43,247.53c-7.35,31.72-34.53,53.05-66.87,53.48-41.92.56-70.91-32.48-71.39-68.62-.46-34.15,25.45-69.55,69.18-70.13,41.92-.56,64.75,31.48,68.65,52.39l-35.77.48c-3.93-9.89-14.22-23.12-32.65-22.87-22.95.31-35.51,20.53-35.25,39.5.27,20.24,14.26,39.56,36.49,39.27,21.32-.29,29.75-18.29,31.86-23.01l35.77-.48Z" fill="#fff" stroke-width="0"/><path d="M389.54,322.17l-37.64-164.14c-.71-3.1-2.69-5.56-5.26-7-.29-.2-13.31-8.37-13.63-8.54-2.41-1.69-5.5-2.39-8.59-1.68l-165.97,38.06c-5.81,1.33-9.45,7.13-8.11,12.94l37.64,164.14c.71,3.1,2.69,5.56,5.26,7,.29.2,12.41,7.8,12.72,7.97.29.2.6.39.91.57,2.41,1.69,5.5,2.39,8.59,1.68l165.97-38.06c5.81-1.33,9.45-7.13,8.11-12.94Z" fill="#272f5a" stroke-width="0"/><path d="M325.17,153.07c2.74,0,5.08,1.86,5.69,4.51l35.37,154.26c.35,1.51.08,3.07-.75,4.39-.83,1.32-2.14,2.25-3.67,2.6l-156.75,35.94c-.44.1-.89.15-1.33.15-2.74,0-5.08-1.86-5.69-4.51l-35.37-154.26c-.35-1.51-.08-3.07.75-4.39.83-1.32,2.14-2.25,3.67-2.6l156.75-35.94c.44-.1.89-.15,1.33-.15M325.17,148.73c-.76,0-1.53.08-2.3.26l-156.75,35.94c-5.49,1.26-8.93,6.71-7.68,12.17l35.37,154.26c1.08,4.7,5.27,7.88,9.91,7.88.76,0,1.53-.08,2.3-.26l156.75-35.94c5.49-1.26,8.93-6.71,7.68-12.17l-35.37-154.26c-1.08-4.7-5.27-7.88-9.91-7.88h0Z" fill="#fff" stroke-width="0"/><path d="M351.38,301.64c-2.42.74-5.03,1.52-8.2,2.25-17.96,4.12-28.62-.3-32.99-3.19-13.01,12.81-25.66,16.64-34.29,18.61-42.09,9.65-76.66-18.2-84.25-51.31-7.83-34.17,10.75-74.39,52.84-84.04,42.09-9.65,77.2,17.33,84.83,50.62,4.97,21.66.07,34.28-2.1,40.15,4.9,2.77,10.34,2.26,18.09.49l6.06,26.42ZM251.2,213.2c-15.32,3.51-25.73,15.54-27.34,32.78-.12,1.88-.47,3.63-.2,5.61,3.59-2.12,9.72-6.12,18.35-8.1,9.51-2.18,18.23-2.14,29.67,2.47,10,4.01,16.24,7.77,24.63,13.63,1.18-4.53,1.26-10.67-.27-17.36-5.29-23.07-25.29-33.5-44.67-29.06l-.18.04ZM269.03,290.12c5.28-1.21,10.32-3.48,12.6-5.67-5.26-4.35-9.77-7.03-13.76-9.08-7.98-4.1-16.22-4.44-22.74-2.94-5.64,1.29-9.31,3.06-11.71,4.72,8.75,12.27,24.68,15.47,35.43,13.01l.18-.04Z" fill="#fff" stroke-width="0"/><text transform="translate(513.97 513.93) rotate(6.57)" fill="#8d92a8" font-family="ITCAvantGardePro-Bold, &apos;ITC Avant Garde Gothic Pro&apos;" font-size="188.03" font-weight="700" stroke="#272f5a" stroke-miterlimit="10" stroke-width="1.42"><tspan x="0" y="0">2</tspan></text><path d="M523.52,514.75l3.17-27.56c18.34-9.1,31.79-17.05,40.38-24.04,17.58-14.12,27.85-27.38,29.08-38.07.93-8.06-3.88-14.13-11.57-15.01-9.75-1.12-15.99,5.19-18.46,20.1l-33.75-3.89c3.73-32.44,26.17-50.75,57.11-47.19,28.31,3.26,45.13,23.81,42.61,45.75-2.55,22.12-17.04,40.78-54.33,65.94l47.06,5.42-3.43,29.81-97.87-11.27Z" fill="#8f93a9" stroke="#272f5a" stroke-miterlimit="10" stroke-width="1.48"/><path d="M523.55,514.47l3.18-27.66c18.4-9.13,31.9-17.11,40.53-24.13,17.65-14.18,27.95-27.48,29.18-38.21.93-8.09-3.9-14.18-11.61-15.06-9.79-1.13-16.04,5.21-18.53,20.18l-33.87-3.9c3.74-32.56,26.26-50.94,57.31-47.37,28.42,3.27,45.3,23.9,42.77,45.91-2.55,22.21-17.1,40.93-54.52,66.18l47.23,5.43-3.44,29.92-98.23-11.3Z" fill="#9095aa" stroke="#272f5a" stroke-miterlimit="10" stroke-width="1.54"/><path d="M523.58,514.19l3.19-27.76c18.47-9.17,32.02-17.18,40.68-24.22,17.71-14.23,28.05-27.59,29.29-38.35.93-8.12-3.91-14.23-11.66-15.12-9.82-1.13-16.1,5.23-18.59,20.25l-34-3.91c3.76-32.68,26.35-51.13,57.52-47.55,28.52,3.28,45.47,23.98,42.93,46.08-2.56,22.29-17.16,41.09-54.71,66.43l47.41,5.45-3.45,30.03-98.59-11.33Z" fill="#9296ab" stroke="#272f5a" stroke-miterlimit="10" stroke-width="1.6"/><path d="M523.6,513.91l3.2-27.87c18.54-9.2,32.14-17.25,40.82-24.31,17.77-14.28,28.15-27.69,29.39-38.5.94-8.15-3.93-14.28-11.7-15.17-9.86-1.13-16.16,5.25-18.66,20.33l-34.12-3.92c3.77-32.8,26.44-51.32,57.72-47.73,28.63,3.29,45.64,24.06,43.09,46.24-2.57,22.37-17.22,41.24-54.91,66.68l47.58,5.46-3.46,30.14-98.96-11.36Z" fill="#9398ad" stroke="#272f5a" stroke-miterlimit="10" stroke-width="1.66"/><path d="M523.63,513.63l3.21-27.97c18.6-9.24,32.25-17.31,40.97-24.41,17.84-14.34,28.25-27.79,29.49-38.64.94-8.18-3.95-14.33-11.75-15.23-9.89-1.14-16.22,5.27-18.73,20.41l-34.25-3.93c3.78-32.92,26.54-51.51,57.93-47.91,28.73,3.3,45.81,24.15,43.25,46.41-2.58,22.45-17.28,41.39-55.1,66.93l47.76,5.48-3.47,30.25-99.32-11.4Z" fill="#9599ae" stroke="#272f5a" stroke-miterlimit="10" stroke-width="1.72"/><path d="M523.65,513.35l3.22-28.07c18.67-9.27,32.37-17.38,41.11-24.5,17.9-14.39,28.35-27.9,29.6-38.78.94-8.21-3.96-14.38-11.79-15.28-9.93-1.14-16.28,5.29-18.79,20.48l-34.37-3.94c3.79-33.04,26.63-51.7,58.14-48.09,28.83,3.31,45.98,24.23,43.41,46.57-2.58,22.53-17.34,41.54-55.29,67.18l47.93,5.5-3.48,30.36-99.68-11.43Z" fill="#969baf" stroke="#272f5a" stroke-miterlimit="10" stroke-width="1.78"/><path d="M523.68,513.07l3.23-28.17c18.74-9.31,32.48-17.44,41.26-24.59,17.96-14.45,28.45-28,29.7-38.93.94-8.24-3.98-14.44-11.83-15.34-9.97-1.14-16.34,5.31-18.86,20.56l-34.5-3.95c3.8-33.16,26.72-51.89,58.34-48.27,28.94,3.31,46.14,24.31,43.58,46.74-2.59,22.61-17.4,41.69-55.49,67.43l48.1,5.51-3.49,30.47-100.04-11.46Z" fill="#989cb0" stroke="#272f5a" stroke-miterlimit="10" stroke-width="1.84"/><path d="M523.7,512.79l3.24-28.27c18.8-9.34,32.6-17.51,41.41-24.68,18.03-14.5,28.55-28.1,29.8-39.07.95-8.27-3.99-14.49-11.88-15.39-10-1.14-16.39,5.33-18.92,20.63l-34.62-3.96c3.81-33.28,26.81-52.08,58.55-48.44,29.04,3.32,46.31,24.4,43.74,46.9-2.6,22.7-17.46,41.85-55.68,67.67l48.28,5.53-3.5,30.58-100.4-11.49Z" fill="#999db1" stroke="#272f5a" stroke-miterlimit="10" stroke-width="1.9"/><path d="M523.73,512.51l3.25-28.38c18.87-9.38,32.71-17.58,41.55-24.78,18.09-14.55,28.65-28.21,29.91-39.21.95-8.3-4.01-14.54-11.92-15.44-10.04-1.15-16.45,5.35-18.99,20.71l-34.75-3.97c3.82-33.39,26.9-52.27,58.75-48.62,29.15,3.33,46.48,24.48,43.9,47.06-2.6,22.78-17.51,42-55.87,67.92l48.45,5.54-3.51,30.69-100.76-11.52Z" fill="#9b9fb2" stroke="#272f5a" stroke-miterlimit="10" stroke-width="1.97"/><path d="M523.75,512.22l3.25-28.48c18.94-9.42,32.83-17.64,41.7-24.87,18.15-14.61,28.75-28.31,30.01-39.35.95-8.33-4.02-14.59-11.97-15.5-10.07-1.15-16.51,5.38-19.06,20.78l-34.87-3.98c3.83-33.51,26.99-52.46,58.96-48.8,29.25,3.34,46.65,24.56,44.06,47.23-2.61,22.86-17.57,42.15-56.07,68.17l48.63,5.56-3.52,30.8-101.13-11.56Z" fill="#9ca0b3" stroke="#272f5a" stroke-miterlimit="10" stroke-width="2.03"/><path d="M523.78,511.94l3.26-28.58c19-9.45,32.94-17.71,41.85-24.96,18.22-14.66,28.85-28.42,30.11-39.5.95-8.36-4.04-14.64-12.01-15.55-10.11-1.15-16.57,5.4-19.12,20.86l-35-4c3.84-33.63,27.08-52.65,59.16-48.98,29.36,3.35,46.82,24.65,44.22,47.39-2.62,22.94-17.63,42.3-56.26,68.42l48.8,5.57-3.53,30.91-101.49-11.59Z" fill="#9ea2b5" stroke="#272f5a" stroke-miterlimit="10" stroke-width="2.09"/><path d="M523.8,511.66l3.27-28.68c19.07-9.49,33.06-17.77,41.99-25.05,18.28-14.71,28.95-28.52,30.22-39.64.96-8.39-4.06-14.69-12.06-15.61-10.15-1.16-16.63,5.42-19.19,20.94l-35.12-4.01c3.85-33.75,27.18-52.84,59.37-49.16,29.46,3.36,46.99,24.73,44.38,47.56-2.63,23.02-17.69,42.45-56.46,68.67l48.97,5.59-3.54,31.02-101.85-11.62Z" fill="#9fa3b6" stroke="#272f5a" stroke-miterlimit="10" stroke-width="2.15"/><path d="M523.83,511.38l3.28-28.78c19.14-9.52,33.17-17.84,42.14-25.15,18.34-14.77,29.05-28.62,30.32-39.78.96-8.42-4.07-14.75-12.1-15.66-10.18-1.16-16.69,5.44-19.25,21.01l-35.25-4.02c3.86-33.87,27.27-53.02,59.58-49.34,29.57,3.37,47.16,24.81,44.54,47.72-2.63,23.11-17.75,42.61-56.65,68.91l49.15,5.6-3.55,31.13-102.21-11.65Z" fill="#a1a5b7" stroke="#272f5a" stroke-miterlimit="10" stroke-width="2.21"/><path d="M523.85,511.1l3.29-28.89c19.2-9.56,33.29-17.9,42.29-25.24,18.41-14.82,29.15-28.73,30.42-39.93.96-8.45-4.09-14.8-12.14-15.71-10.22-1.16-16.74,5.46-19.32,21.09l-35.37-4.03c3.87-33.99,27.36-53.21,59.78-49.52,29.67,3.38,47.32,24.9,44.71,47.89-2.64,23.19-17.81,42.76-56.84,69.16l49.32,5.62-3.56,31.24-102.57-11.68Z" fill="#a2a6b8" stroke="#272f5a" stroke-miterlimit="10" stroke-width="2.27"/><path d="M523.88,510.82l3.3-28.99c19.27-9.59,33.41-17.97,42.43-25.33,18.47-14.88,29.25-28.83,30.53-40.07.97-8.48-4.1-14.85-12.19-15.77-10.25-1.17-16.8,5.48-19.39,21.16l-35.49-4.04c3.88-34.11,27.45-53.4,59.99-49.7,29.78,3.39,47.49,24.98,44.87,48.05-2.65,23.27-17.87,42.91-57.04,69.41l49.49,5.63-3.57,31.35-102.93-11.72Z" fill="#a4a8b9" stroke="#272f5a" stroke-miterlimit="10" stroke-width="2.33"/><path d="M523.9,510.54l3.31-29.09c19.34-9.63,33.52-18.04,42.58-25.42,18.53-14.93,29.35-28.93,30.63-40.21.97-8.51-4.12-14.9-12.23-15.82-10.29-1.17-16.86,5.5-19.45,21.24l-35.62-4.05c3.89-34.23,27.54-53.59,60.19-49.88,29.88,3.4,47.66,25.06,45.03,48.22-2.66,23.35-17.93,43.06-57.23,69.66l49.67,5.65-3.58,31.46-103.29-11.75Z" fill="#a5a9ba" stroke="#272f5a" stroke-miterlimit="10" stroke-width="2.39"/><path d="M523.93,510.26l3.32-29.19c19.4-9.66,33.64-18.1,42.73-25.52,18.6-14.98,29.45-29.04,30.73-40.36.97-8.54-4.13-14.95-12.28-15.88-10.33-1.17-16.92,5.52-19.52,21.32l-35.74-4.06c3.9-34.35,27.63-53.78,60.4-50.06,29.99,3.41,47.83,25.15,45.19,48.38-2.66,23.43-17.98,43.21-57.42,69.91l49.84,5.66-3.59,31.57-103.66-11.78Z" fill="#a7aabb" stroke="#272f5a" stroke-miterlimit="10" stroke-width="2.45"/><path d="M523.95,509.98l3.33-29.29c19.47-9.7,33.75-18.17,42.87-25.61,18.66-15.04,29.55-29.14,30.84-40.5.97-8.57-4.15-15-12.32-15.93-10.36-1.18-16.98,5.54-19.59,21.39l-35.87-4.07c3.91-34.47,27.73-53.97,60.6-50.24,30.09,3.42,48,25.23,45.35,48.54-2.67,23.51-18.04,43.36-57.62,70.16l50.02,5.68-3.6,31.68-104.02-11.81Z" fill="#a8acbd" stroke="#272f5a" stroke-miterlimit="10" stroke-width="2.51"/><path d="M523.98,509.7l3.34-29.39c19.54-9.73,33.87-18.23,43.02-25.7,18.73-15.09,29.65-29.24,30.94-40.64.98-8.6-4.17-15.06-12.36-15.99-10.4-1.18-17.04,5.56-19.65,21.47l-35.99-4.08c3.92-34.59,27.82-54.16,60.81-50.42,30.19,3.43,48.17,25.31,45.51,48.71-2.68,23.6-18.1,43.52-57.81,70.4l50.19,5.69-3.61,31.79-104.38-11.84Z" fill="#aaadbe" stroke="#272f5a" stroke-miterlimit="10" stroke-width="2.57"/><path d="M524,509.42l3.34-29.5c19.6-9.77,33.98-18.3,43.16-25.79,18.79-15.14,29.75-29.35,31.04-40.79.98-8.63-4.18-15.11-12.41-16.04-10.43-1.18-17.09,5.58-19.72,21.54l-36.12-4.1c3.94-34.71,27.91-54.35,61.02-50.6,30.3,3.44,48.34,25.4,45.67,48.87-2.68,23.68-18.16,43.67-58.01,70.65l50.36,5.71-3.62,31.9-104.74-11.88Z" fill="#abafbf" stroke="#272f5a" stroke-miterlimit="10" stroke-width="2.63"/><path d="M524.03,509.14l3.35-29.6c19.67-9.8,34.1-18.37,43.31-25.89,18.85-15.2,29.85-29.45,31.15-40.93.98-8.66-4.2-15.16-12.45-16.09-10.47-1.19-17.15,5.6-19.78,21.62l-36.24-4.11c3.95-34.83,28-54.54,61.22-50.78,30.4,3.44,48.5,25.48,45.84,49.04-2.69,23.76-18.22,43.82-58.2,70.9l50.54,5.73-3.63,32.01-105.1-11.91Z" fill="#adb0c0" stroke="#272f5a" stroke-miterlimit="10" stroke-width="2.69"/><path d="M524.05,508.86l3.36-29.7c19.74-9.84,34.21-18.43,43.46-25.98,18.92-15.25,29.95-29.55,31.25-41.07.98-8.69-4.21-15.21-12.5-16.15-10.51-1.19-17.21,5.62-19.85,21.69l-36.37-4.12c3.96-34.95,28.09-54.73,61.43-50.96,30.51,3.45,48.67,25.56,46,49.2-2.7,23.84-18.28,43.97-58.39,71.15l50.71,5.74-3.64,32.12-105.46-11.94Z" fill="#aeb2c1" stroke="#272f5a" stroke-miterlimit="10" stroke-width="2.75"/><path d="M524.08,508.58l3.37-29.8c19.8-9.87,34.33-18.5,43.6-26.07,18.98-15.31,30.05-29.66,31.35-41.21.99-8.72-4.23-15.26-12.54-16.2-10.54-1.19-17.27,5.64-19.92,21.77l-36.49-4.13c3.97-35.07,28.18-54.92,61.63-51.14,30.61,3.46,48.84,25.65,46.16,49.37-2.71,23.92-18.34,44.12-58.59,71.4l50.89,5.76-3.65,32.23-105.83-11.97Z" fill="#b0b3c2" stroke="#272f5a" stroke-miterlimit="10" stroke-width="2.81"/><path d="M524.1,508.3l3.38-29.9c19.87-9.91,34.44-18.56,43.75-26.16,19.04-15.36,30.15-29.76,31.46-41.36.99-8.75-4.24-15.31-12.58-16.26-10.58-1.2-17.33,5.66-19.98,21.85l-36.62-4.14c3.98-35.19,28.27-55.11,61.84-51.31,30.72,3.47,49.01,25.73,46.32,49.53-2.71,24-18.4,44.28-58.78,71.64l51.06,5.77-3.66,32.34-106.19-12Z" fill="#b1b4c3" stroke="#272f5a" stroke-miterlimit="10" stroke-width="2.87"/><path d="M524.13,508.02l3.39-30.01c19.94-9.94,34.56-18.63,43.9-26.26,19.11-15.41,30.25-29.87,31.56-41.5.99-8.78-4.26-15.37-12.63-16.31-10.61-1.2-17.39,5.69-20.05,21.92l-36.74-4.15c3.99-35.31,28.37-55.3,62.04-51.49,30.82,3.48,49.18,25.81,46.48,49.7-2.72,24.09-18.46,44.43-58.97,71.89l51.23,5.79-3.67,32.45-106.55-12.03Z" fill="#b3b6c5" stroke="#272f5a" stroke-miterlimit="10" stroke-width="2.93"/><path d="M524.15,507.74l3.4-30.11c20-9.98,34.68-18.7,44.04-26.35,19.17-15.47,30.35-29.97,31.66-41.64.99-8.81-4.28-15.42-12.67-16.36-10.65-1.2-17.45,5.71-20.11,22l-36.87-4.16c4-35.43,28.46-55.49,62.25-51.67,30.93,3.49,49.35,25.9,46.64,49.86-2.73,24.17-18.51,44.58-59.17,72.14l51.41,5.8-3.68,32.56-106.91-12.07Z" fill="#b4b7c6" stroke="#272f5a" stroke-miterlimit="10" stroke-width="2.99"/><path d="M524.18,507.46l3.41-30.21c20.07-10.02,34.79-18.76,44.19-26.44,19.23-15.52,30.45-30.07,31.77-41.79,1-8.84-4.29-15.47-12.72-16.42-10.69-1.21-17.5,5.73-20.18,22.07l-36.99-4.17c4.01-35.55,28.55-55.68,62.46-51.85,31.03,3.5,49.52,25.98,46.8,50.02-2.73,24.25-18.57,44.73-59.36,72.39l51.58,5.82-3.69,32.68-107.27-12.1Z" fill="#b6b9c7" stroke="#272f5a" stroke-miterlimit="10" stroke-width="3.05"/><path d="M524.2,507.17l3.42-30.31c20.14-10.05,34.91-18.83,44.34-26.53,19.3-15.57,30.55-30.18,31.87-41.93,1-8.87-4.31-15.52-12.76-16.47-10.72-1.21-17.56,5.75-20.25,22.15l-37.12-4.18c4.02-35.67,28.64-55.87,62.66-52.03,31.14,3.51,49.68,26.06,46.97,50.19-2.74,24.33-18.63,44.88-59.56,72.64l51.76,5.83-3.69,32.79-107.63-12.13Z" fill="#b7bac8" stroke="#272f5a" stroke-miterlimit="10" stroke-width="3.11"/><path d="M524.23,506.89l3.43-30.41c20.2-10.09,35.02-18.89,44.48-26.63,19.36-15.63,30.65-30.28,31.98-42.07,1-8.9-4.32-15.57-12.8-16.53-10.76-1.21-17.62,5.77-20.31,22.23l-37.24-4.19c4.03-35.79,28.73-56.06,62.87-52.21,31.24,3.52,49.85,26.15,47.13,50.35-2.75,24.41-18.69,45.04-59.75,72.89l51.93,5.85-3.7,32.9-108-12.16Z" fill="#b9bcc9" stroke="#272f5a" stroke-miterlimit="10" stroke-width="3.17"/><path d="M524.26,506.61l3.43-30.51c20.27-10.12,35.14-18.96,44.63-26.72,19.42-15.68,30.75-30.38,32.08-42.22,1-8.93-4.34-15.62-12.85-16.58-10.79-1.21-17.68,5.79-20.38,22.3l-37.36-4.21c4.04-35.91,28.82-56.25,63.07-52.39,31.34,3.53,50.02,26.23,47.29,50.52-2.76,24.49-18.75,45.19-59.94,73.13l52.1,5.86-3.71,33.01-108.36-12.19Z" fill="#babdca" stroke="#272f5a" stroke-miterlimit="10" stroke-width="3.23"/><path d="M524.28,506.33l3.44-30.62c20.34-10.16,35.25-19.02,44.78-26.81,19.49-15.74,30.85-30.49,32.18-42.36,1.01-8.96-4.35-15.68-12.89-16.64-10.83-1.22-17.74,5.81-20.44,22.38l-37.49-4.22c4.05-36.03,28.91-56.44,63.28-52.57,31.45,3.54,50.19,26.31,47.45,50.68-2.76,24.58-18.81,45.34-60.14,73.38l52.28,5.88-3.72,33.12-108.72-12.23Z" fill="#bcbecb" stroke="#272f5a" stroke-miterlimit="10" stroke-width="3.29"/><path d="M524.31,506.05l3.45-30.72c20.4-10.19,35.37-19.09,44.92-26.9,19.55-15.79,30.95-30.59,32.29-42.5,1.01-8.99-4.37-15.73-12.94-16.69-10.87-1.22-17.8,5.83-20.51,22.45l-37.61-4.23c4.06-36.15,29.01-56.62,63.49-52.75,31.55,3.55,50.36,26.4,47.61,50.85-2.77,24.66-18.87,45.49-60.33,73.63l52.45,5.89-3.73,33.23-109.08-12.26Z" fill="#bdc0cd" stroke="#272f5a" stroke-miterlimit="10" stroke-width="3.35"/><path d="M524.33,505.77l3.46-30.82c20.47-10.23,35.48-19.16,45.07-27,19.61-15.84,31.05-30.69,32.39-42.65,1.01-9.02-4.38-15.78-12.98-16.74-10.9-1.22-17.85,5.85-20.58,22.53l-37.74-4.24c4.07-36.27,29.1-56.81,63.69-52.93,31.66,3.56,50.53,26.48,47.77,51.01-2.78,24.74-18.93,45.64-60.52,73.88l52.62,5.91-3.74,33.34-109.44-12.29Z" fill="#bfc1ce" stroke="#272f5a" stroke-miterlimit="10" stroke-width="3.41"/><path d="M524.36,505.49l3.47-30.92c20.54-10.26,35.6-19.22,45.21-27.09,19.68-15.9,31.15-30.8,32.49-42.79,1.01-9.05-4.4-15.83-13.03-16.8-10.94-1.23-17.91,5.87-20.64,22.61l-37.86-4.25c4.08-36.39,29.19-57,63.9-53.11,31.76,3.56,50.7,26.56,47.93,51.17-2.79,24.82-18.98,45.8-60.72,74.13l52.8,5.93-3.75,33.45-109.8-12.32Z" fill="#c0c3cf" stroke="#272f5a" stroke-miterlimit="10" stroke-width="3.47"/><path d="M524.38,505.21l3.48-31.02c20.6-10.3,35.71-19.29,45.36-27.18,19.74-15.95,31.25-30.9,32.6-42.93,1.02-9.08-4.42-15.88-13.07-16.85-10.97-1.23-17.97,5.89-20.71,22.68l-37.99-4.26c4.09-36.51,29.28-57.19,64.1-53.29,31.87,3.57,50.86,26.65,48.09,51.34-2.79,24.9-19.04,45.95-60.91,74.38l52.97,5.94-3.76,33.56-110.17-12.35Z" fill="#c2c4d0" stroke="#272f5a" stroke-miterlimit="10" stroke-width="3.53"/><path d="M524.41,504.93l3.49-31.13c20.67-10.33,35.83-19.35,45.51-27.27,19.8-16,31.35-31.01,32.7-43.07,1.02-9.1-4.43-15.93-13.11-16.91-11.01-1.23-18.03,5.91-20.77,22.76l-38.11-4.27c4.11-36.63,29.37-57.38,64.31-53.47,31.97,3.58,51.03,26.73,48.26,51.5-2.8,24.98-19.1,46.1-61.1,74.62l53.15,5.96-3.77,33.67-110.53-12.39Z" fill="#c3c6d1" stroke="#272f5a" stroke-miterlimit="10" stroke-width="3.59"/><path d="M524.43,504.65l3.5-31.23c20.73-10.37,35.94-19.42,45.65-27.37,19.87-16.06,31.45-31.11,32.8-43.22,1.02-9.13-4.45-15.98-13.16-16.96-11.05-1.24-18.09,5.93-20.84,22.83l-38.24-4.28c4.12-36.75,29.46-57.57,64.51-53.65,32.08,3.59,51.2,26.81,48.42,51.67-2.81,25.07-19.16,46.25-61.3,74.87l53.32,5.97-3.78,33.78-110.89-12.42Z" fill="#c5c7d2" stroke="#272f5a" stroke-miterlimit="10" stroke-width="3.65"/><path d="M524.46,504.37l3.51-31.33c20.8-10.4,36.06-19.49,45.8-27.46,19.93-16.11,31.55-31.21,32.91-43.36,1.03-9.16-4.46-16.04-13.2-17.01-11.08-1.24-18.15,5.95-20.91,22.91l-38.36-4.29c4.13-36.87,29.55-57.76,64.72-53.83,32.18,3.6,51.37,26.9,48.58,51.83-2.81,25.15-19.22,46.4-61.49,75.12l53.49,5.99-3.79,33.89-111.25-12.45Z" fill="#c6c9d4" stroke="#272f5a" stroke-miterlimit="10" stroke-width="3.71"/><path d="M524.48,504.09l3.52-31.43c20.87-10.44,36.18-19.55,45.95-27.55,19.99-16.17,31.65-31.32,33.01-43.5,1.03-9.19-4.48-16.09-13.25-17.07-11.12-1.24-18.2,5.97-20.97,22.98l-38.49-4.3c4.14-36.99,29.65-57.95,64.93-54.01,32.29,3.61,51.54,26.98,48.74,52-2.82,25.23-19.28,46.55-61.69,75.37l53.67,6-3.8,34-111.61-12.48Z" fill="#c7cad5" stroke="#272f5a" stroke-miterlimit="10" stroke-width="3.77"/><path d="M524.51,503.81l3.52-31.53c20.93-10.47,36.29-19.62,46.09-27.64,20.06-16.22,31.75-31.42,33.11-43.65,1.03-9.22-4.49-16.14-13.29-17.12-11.15-1.25-18.26,6-21.04,23.06l-38.61-4.32c4.15-37.11,29.74-58.14,65.13-54.19,32.39,3.62,51.71,27.06,48.9,52.16-2.83,25.31-19.34,46.71-61.88,75.62l53.84,6.02-3.81,34.11-111.97-12.51Z" fill="#c9cbd6" stroke="#272f5a" stroke-miterlimit="10" stroke-width="3.83"/><path d="M524.53,503.53l3.53-31.63c21-10.51,36.41-19.68,46.24-27.74,20.12-16.27,31.85-31.52,33.22-43.79,1.03-9.25-4.51-16.19-13.33-17.18-11.19-1.25-18.32,6.02-21.1,23.14l-38.74-4.33c4.16-37.23,29.83-58.33,65.34-54.36,32.5,3.63,51.88,27.15,49.06,52.33-2.84,25.39-19.4,46.86-62.07,75.86l54.02,6.03-3.82,34.22-112.34-12.55Z" fill="#cacdd7" stroke="#272f5a" stroke-miterlimit="10" stroke-width="3.89"/><path d="M524.56,503.25l3.54-31.74c21.07-10.54,36.52-19.75,46.39-27.83,20.18-16.33,31.95-31.63,33.32-43.93,1.04-9.28-4.53-16.24-13.38-17.23-11.23-1.25-18.38,6.04-21.17,23.21l-38.86-4.34c4.17-37.35,29.92-58.52,65.54-54.54,32.6,3.64,52.04,27.23,49.22,52.49-2.84,25.48-19.45,47.01-62.27,76.11l54.19,6.05-3.83,34.33-112.7-12.58Z" fill="#ccced8" stroke="#272f5a" stroke-miterlimit="10" stroke-width="3.95"/><path d="M524.58,502.97l3.55-31.84c21.13-10.58,36.64-19.82,46.53-27.92,20.25-16.38,32.05-31.73,33.42-44.08,1.04-9.31-4.54-16.29-13.42-17.29-11.26-1.26-18.44,6.06-21.24,23.29l-38.99-4.35c4.18-37.47,30.01-58.71,65.75-54.72,32.7,3.65,52.21,27.31,49.39,52.65-2.85,25.56-19.51,47.16-62.46,76.36l54.36,6.06-3.84,34.44-113.06-12.61Z" fill="#cdd0d9" stroke="#272f5a" stroke-miterlimit="10" stroke-width="4.01"/><path d="M524.61,502.69l3.56-31.94c21.2-10.62,36.75-19.88,46.68-28.01,20.31-16.43,32.15-31.83,33.53-44.22,1.04-9.34-4.56-16.35-13.47-17.34-11.3-1.26-18.5,6.08-21.3,23.36l-39.11-4.36c4.19-37.59,30.1-58.9,65.95-54.9,32.81,3.66,52.38,27.4,49.55,52.82-2.86,25.64-19.57,47.31-62.65,76.61l54.54,6.08-3.85,34.55-113.42-12.64Z" fill="#cfd1da" stroke="#272f5a" stroke-miterlimit="10" stroke-width="4.07"/><path d="M524.63,502.41l3.57-32.04c21.27-10.65,36.87-19.95,46.82-28.11,20.37-16.49,32.25-31.94,33.63-44.36,1.04-9.37-4.57-16.4-13.51-17.39-11.33-1.26-18.55,6.1-21.37,23.44l-39.24-4.37c4.2-37.71,30.19-59.09,66.16-55.08,32.91,3.67,52.55,27.48,49.71,52.98-2.87,25.72-19.63,47.47-62.85,76.86l54.71,6.09-3.86,34.66-113.78-12.67Z" fill="#d0d3dc" stroke="#272f5a" stroke-miterlimit="10" stroke-width="4.13"/><path d="M524.66,502.12l3.58-32.14c21.33-10.69,36.98-20.01,46.97-28.2,20.44-16.54,32.35-32.04,33.73-44.5,1.05-9.4-4.59-16.45-13.55-17.45-11.37-1.27-18.61,6.12-21.43,23.52l-39.36-4.38c4.21-37.83,30.29-59.28,66.37-55.26,33.02,3.68,52.72,27.56,49.87,53.15-2.87,25.8-19.69,47.62-63.04,77.11l54.89,6.11-3.87,34.77-114.14-12.71Z" fill="#d2d4dd" stroke="#272f5a" stroke-miterlimit="10" stroke-width="4.19"/><path d="M524.68,501.84l3.59-32.25c21.4-10.72,37.1-20.08,47.12-28.29,20.5-16.6,32.45-32.14,33.84-44.65,1.05-9.43-4.6-16.5-13.6-17.5-11.41-1.27-18.67,6.14-21.5,23.59l-39.48-4.39c4.22-37.95,30.38-59.47,66.57-55.44,33.12,3.68,52.89,27.65,50.03,53.31-2.88,25.88-19.75,47.77-63.24,77.35l55.06,6.13-3.88,34.88-114.51-12.74Z" fill="#d3d5de" stroke="#272f5a" stroke-miterlimit="10" stroke-width="4.25"/><path d="M524.71,501.56l3.6-32.35c21.47-10.76,37.21-20.15,47.26-28.38,20.56-16.65,32.55-32.25,33.94-44.79,1.05-9.46-4.62-16.55-13.64-17.56-11.44-1.27-18.73,6.16-21.57,23.67l-39.61-4.4c4.23-38.07,30.47-59.66,66.78-55.62,33.23,3.69,53.06,27.73,50.19,53.48-2.89,25.97-19.81,47.92-63.43,77.6l55.23,6.14-3.89,34.99-114.87-12.77Z" fill="#d5d7df" stroke="#272f5a" stroke-miterlimit="10" stroke-width="4.31"/><path d="M524.73,501.28l3.61-32.45c21.53-10.79,37.33-20.21,47.41-28.48,20.63-16.7,32.65-32.35,34.04-44.93,1.05-9.49-4.64-16.6-13.69-17.61-11.48-1.28-18.79,6.18-21.63,23.74l-39.73-4.41c4.24-38.19,30.56-59.85,66.98-55.8,33.33,3.7,53.22,27.81,50.35,53.64-2.89,26.05-19.87,48.07-63.62,77.85l55.41,6.16-3.9,35.1-115.23-12.8Z" fill="#d6d8e0" stroke="#272f5a" stroke-miterlimit="10" stroke-width="4.37"/><path d="M524.76,501l3.61-32.55c21.6-10.83,37.45-20.28,47.56-28.57,20.69-16.76,32.75-32.46,34.15-45.08,1.06-9.52-4.65-16.66-13.73-17.66-11.51-1.28-18.85,6.2-21.7,23.82l-39.86-4.43c4.25-38.31,30.65-60.04,67.19-55.98,33.44,3.71,53.39,27.9,50.52,53.8-2.9,26.13-19.93,48.23-63.82,78.1l55.58,6.17-3.91,35.21-115.59-12.83Z" fill="#d8dae1" stroke="#272f5a" stroke-miterlimit="10" stroke-width="4.43"/><path d="M524.78,500.72l3.62-32.65c21.67-10.86,37.56-20.34,47.7-28.66,20.75-16.81,32.85-32.56,34.25-45.22,1.06-9.55-4.67-16.71-13.77-17.72-11.55-1.28-18.9,6.22-21.76,23.89l-39.98-4.44c4.26-38.43,30.74-60.23,67.39-56.16,33.54,3.72,53.56,27.98,50.68,53.97-2.91,26.21-19.98,48.38-64.01,78.35l55.75,6.19-3.92,35.32-115.95-12.87Z" fill="#d9dbe2" stroke="#272f5a" stroke-miterlimit="10" stroke-width="4.49"/><path d="M524.81,500.44l3.63-32.75c21.73-10.9,37.68-20.41,47.85-28.75,20.82-16.86,32.95-32.66,34.35-45.36,1.06-9.58-4.68-16.76-13.82-17.77-11.59-1.28-18.96,6.24-21.83,23.97l-40.11-4.45c4.27-38.55,30.83-60.41,67.6-56.34,33.65,3.73,53.73,28.06,50.84,54.13-2.92,26.29-20.04,48.53-64.2,78.59l55.93,6.2-3.93,35.43-116.31-12.9Z" fill="#dbdde4" stroke="#272f5a" stroke-miterlimit="10" stroke-width="4.55"/><path d="M524.83,500.16l3.64-32.86c21.8-10.93,37.79-20.47,48-28.85,20.88-16.92,33.05-32.77,34.46-45.51,1.06-9.61-4.7-16.81-13.86-17.83-11.62-1.29-19.02,6.26-21.9,24.05l-40.23-4.46c4.29-38.67,30.93-60.6,67.81-56.52,33.75,3.74,53.9,28.15,51,54.3-2.92,26.37-20.1,48.68-64.4,78.84l56.1,6.22-3.94,35.54-116.68-12.93Z" fill="#dcdee5" stroke="#272f5a" stroke-miterlimit="10" stroke-width="4.61"/><path d="M524.86,499.88l3.65-32.96c21.87-10.97,37.91-20.54,48.14-28.94,20.94-16.97,33.14-32.87,34.56-45.65,1.07-9.64-4.71-16.86-13.91-17.88-11.66-1.29-19.08,6.28-21.96,24.12l-40.36-4.47c4.3-38.79,31.02-60.79,68.01-56.7,33.86,3.75,54.07,28.23,51.16,54.46-2.93,26.46-20.16,48.83-64.59,79.09l56.28,6.23-3.95,35.65-117.04-12.96Z" fill="#dedfe6" stroke="#272f5a" stroke-miterlimit="10" stroke-width="4.68"/><path d="M524.88,499.6l3.66-33.06c21.93-11,38.02-20.61,48.29-29.03,21.01-17.03,33.24-32.97,34.66-45.79,1.07-9.67-4.73-16.91-13.95-17.94-11.69-1.29-19.14,6.31-22.03,24.2l-40.48-4.48c4.31-38.91,31.11-60.98,68.22-56.88,33.96,3.76,54.24,28.31,51.32,54.63-2.94,26.54-20.22,48.98-64.78,79.34l56.45,6.25-3.96,35.76-117.4-12.99Z" fill="#dfe1e7" stroke="#272f5a" stroke-miterlimit="10" stroke-width="4.74"/><path d="M524.91,499.32l3.67-33.16c22-11.04,38.14-20.67,48.44-29.12,21.07-17.08,33.34-33.08,34.77-45.94,1.07-9.7-4.75-16.97-13.99-17.99-11.73-1.3-19.2,6.33-22.1,24.27l-40.61-4.49c4.32-39.03,31.2-61.17,68.42-57.06,34.06,3.77,54.4,28.4,51.48,54.79-2.94,26.62-20.28,49.14-64.98,79.59l56.62,6.26-3.97,35.87-117.76-13.03Z" fill="#e1e2e8" stroke="#272f5a" stroke-miterlimit="10" stroke-width="4.8"/><path d="M524.94,499.04l3.68-33.26c22.07-11.07,38.25-20.74,48.58-29.22,21.13-17.13,33.44-33.18,34.87-46.08,1.08-9.73-4.76-17.02-14.04-18.04-11.77-1.3-19.25,6.35-22.16,24.35l-40.73-4.5c4.33-39.15,31.29-61.36,68.63-57.23,34.17,3.78,54.57,28.48,51.65,54.96-2.95,26.7-20.34,49.29-65.17,79.84l56.8,6.28-3.98,35.98-118.12-13.06Z" fill="#e2e4e9" stroke="#272f5a" stroke-miterlimit="10" stroke-width="4.86"/><path d="M524.96,498.76l3.69-33.37c22.13-11.11,38.37-20.8,48.73-29.31,21.2-17.19,33.54-33.28,34.97-46.22,1.08-9.76-4.78-17.07-14.08-18.1-11.8-1.3-19.31,6.37-22.23,24.43l-40.86-4.51c4.34-39.27,31.38-61.55,68.84-57.41,34.27,3.79,54.74,28.56,51.81,55.12-2.96,26.78-20.4,49.44-65.37,80.08l56.97,6.29-3.99,36.09-118.48-13.09Z" fill="#e4e5ea" stroke="#272f5a" stroke-miterlimit="10" stroke-width="4.92"/><path d="M524.99,498.48l3.7-33.47c22.2-11.15,38.48-20.87,48.87-29.4,21.26-17.24,33.64-33.39,35.08-46.36,1.08-9.79-4.79-17.12-14.13-18.15-11.84-1.31-19.37,6.39-22.29,24.5l-40.98-4.52c4.35-39.39,31.47-61.74,69.04-57.59,34.38,3.8,54.91,28.65,51.97,55.28-2.97,26.86-20.45,49.59-65.56,80.33l57.15,6.31-4,36.2-118.84-13.12Z" fill="#e5e7ec" stroke="#272f5a" stroke-miterlimit="10" stroke-width="4.98"/><path d="M525.01,498.2l3.7-33.57c22.27-11.18,38.6-20.94,49.02-29.49,21.32-17.29,33.74-33.49,35.18-46.51,1.08-9.82-4.81-17.17-14.17-18.21-11.88-1.31-19.43,6.41-22.36,24.58l-41.11-4.54c4.36-39.51,31.57-61.93,69.25-57.77,34.48,3.81,55.08,28.73,52.13,55.45-2.97,26.95-20.51,49.74-65.75,80.58l57.32,6.32-4.01,36.31-119.21-13.15Z" fill="#e7e8ed" stroke="#272f5a" stroke-miterlimit="10" stroke-width="5.04"/><path d="M525.04,497.92l3.71-33.67c22.33-11.22,38.72-21,49.17-29.59,21.39-17.35,33.84-33.59,35.28-46.65,1.09-9.85-4.82-17.22-14.22-18.26-11.91-1.31-19.49,6.43-22.43,24.65l-41.23-4.55c4.37-39.63,31.66-62.12,69.45-57.95,34.59,3.81,55.25,28.81,52.29,55.61-2.98,27.03-20.57,49.9-65.95,80.83l57.49,6.34-4.02,36.42-119.57-13.19Z" fill="#e8e9ee" stroke="#272f5a" stroke-miterlimit="10" stroke-width="5.1"/><path d="M525.06,497.64l3.72-33.77c22.4-11.25,38.83-21.07,49.31-29.68,21.45-17.4,33.94-33.7,35.39-46.79,1.09-9.88-4.84-17.28-14.26-18.31-11.95-1.32-19.55,6.45-22.49,24.73l-41.36-4.56c4.38-39.75,31.75-62.31,69.66-58.13,34.69,3.82,55.42,28.9,52.45,55.78-2.99,27.11-20.63,50.05-66.14,81.08l57.67,6.36-4.03,36.53-119.93-13.22Z" fill="#eaebef" stroke="#272f5a" stroke-miterlimit="10" stroke-width="5.16"/><path d="M525.09,497.36l3.73-33.87c22.47-11.29,38.95-21.13,49.46-29.77,21.51-17.46,34.04-33.8,35.49-46.94,1.09-9.91-4.86-17.33-14.3-18.37-11.98-1.32-19.61,6.47-22.56,24.8l-41.48-4.57c4.39-39.87,31.84-62.5,69.86-58.31,34.8,3.83,55.58,28.98,52.61,55.94-3,27.19-20.69,50.2-66.33,81.32l57.84,6.37-4.04,36.64-120.29-13.25Z" fill="#ebecf0" stroke="#272f5a" stroke-miterlimit="10" stroke-width="5.22"/><path d="M525.11,497.07l3.74-33.98c22.53-11.32,39.06-21.2,49.61-29.86,21.58-17.51,34.14-33.91,35.59-47.08,1.09-9.94-4.87-17.38-14.35-18.42-12.02-1.32-19.66,6.49-22.62,24.88l-41.6-4.58c4.4-39.99,31.93-62.69,70.07-58.49,34.9,3.84,55.75,29.06,52.78,56.11-3,27.27-20.75,50.35-66.53,81.57l58.02,6.39-4.05,36.75-120.65-13.28Z" fill="#edeef1" stroke="#272f5a" stroke-miterlimit="10" stroke-width="5.28"/><path d="M525.14,496.79l3.75-34.08c22.6-11.36,39.18-21.27,49.75-29.96,21.64-17.56,34.24-34.01,35.7-47.22,1.1-9.97-4.89-17.43-14.39-18.48-12.06-1.33-19.72,6.51-22.69,24.96l-41.73-4.59c4.41-40.11,32.02-62.88,70.28-58.67,35.01,3.85,55.92,29.15,52.94,56.27-3.01,27.36-20.81,50.5-66.72,81.82l58.19,6.4-4.06,36.86-121.01-13.31Z" fill="#eeeff2" stroke="#272f5a" stroke-miterlimit="10" stroke-width="5.34"/><path d="M525.16,496.51l3.76-34.18c22.67-11.39,39.29-21.33,49.9-30.05,21.7-17.62,34.34-34.11,35.8-47.37,1.1-10-4.9-17.48-14.44-18.53-12.09-1.33-19.78,6.53-22.76,25.03l-41.85-4.6c4.42-40.23,32.11-63.07,70.48-58.85,35.11,3.86,56.09,29.23,53.1,56.43-3.02,27.44-20.87,50.66-66.92,82.07l58.36,6.42-4.06,36.97-121.38-13.35Z" fill="#f0f1f4" stroke="#272f5a" stroke-miterlimit="10" stroke-width="5.4"/><path d="M525.19,496.23l3.77-34.28c22.73-11.43,39.41-21.4,50.05-30.14,21.77-17.67,34.44-34.22,35.9-47.51,1.1-10.03-4.92-17.53-14.48-18.59-12.13-1.33-19.84,6.55-22.82,25.11l-41.98-4.61c4.43-40.35,32.21-63.26,70.69-59.03,35.22,3.87,56.26,29.31,53.26,56.6-3.02,27.52-20.93,50.81-67.11,82.32l58.54,6.43-4.07,37.08-121.74-13.38Z" fill="#f1f2f5" stroke="#272f5a" stroke-miterlimit="10" stroke-width="5.46"/><path d="M525.21,495.95l3.78-34.38c22.8-11.46,39.52-21.46,50.19-30.23,21.83-17.72,34.54-34.32,36.01-47.65,1.1-10.06-4.93-17.59-14.52-18.64-12.16-1.34-19.9,6.57-22.89,25.18l-42.1-4.62c4.44-40.47,32.3-63.45,70.89-59.21,35.32,3.88,56.43,29.4,53.42,56.76-3.03,27.6-20.98,50.96-67.3,82.57l58.71,6.45-4.08,37.19-122.1-13.41Z" fill="#f3f4f6" stroke="#272f5a" stroke-miterlimit="10" stroke-width="5.52"/><path d="M525.24,495.67l3.79-34.49c22.87-11.5,39.64-21.53,50.34-30.33,21.9-17.78,34.64-34.42,36.11-47.8,1.11-10.09-4.95-17.64-14.57-18.69-12.2-1.34-19.96,6.59-22.95,25.26l-42.23-4.64c4.45-40.59,32.39-63.64,71.1-59.39,35.42,3.89,56.6,29.48,53.58,56.93-3.04,27.68-21.04,51.11-67.5,82.81l58.88,6.46-4.09,37.3-122.46-13.44Z" fill="#f4f5f7" stroke="#272f5a" stroke-miterlimit="10" stroke-width="5.58"/><path d="M525.26,495.39l3.79-34.59c22.93-11.53,39.75-21.59,50.49-30.42,21.96-17.83,34.74-34.53,36.21-47.94,1.11-10.12-4.97-17.69-14.61-18.75-12.24-1.34-20.01,6.62-23.02,25.34l-42.35-4.65c4.47-40.71,32.48-63.83,71.3-59.57,35.53,3.9,56.76,29.56,53.74,57.09-3.05,27.76-21.1,51.26-67.69,83.06l59.06,6.48-4.1,37.41-122.82-13.47Z" fill="#f6f6f8" stroke="#272f5a" stroke-miterlimit="10" stroke-width="5.64"/><path d="M525.29,495.11l3.8-34.69c23-11.57,39.87-21.66,50.63-30.51,22.02-17.89,34.84-34.63,36.32-48.08,1.11-10.15-4.98-17.74-14.66-18.8-12.27-1.35-20.07,6.64-23.09,25.41l-42.48-4.66c4.48-40.83,32.57-64.02,71.51-59.75,35.63,3.91,56.93,29.65,53.91,57.26-3.05,27.85-21.16,51.41-67.88,83.31l59.23,6.49-4.11,37.52-123.18-13.51Z" fill="#f7f8f9" stroke="#272f5a" stroke-miterlimit="10" stroke-width="5.7"/><path d="M525.31,494.83l3.81-34.79c23.07-11.6,39.99-21.73,50.78-30.6,22.09-17.94,34.94-34.73,36.42-48.22,1.11-10.18-5-17.79-14.7-18.86-12.31-1.35-20.13,6.66-23.15,25.49l-42.6-4.67c4.49-40.94,32.66-64.2,71.72-59.93,35.74,3.92,57.1,29.73,54.07,57.42-3.06,27.93-21.22,51.57-68.08,83.56l59.41,6.51-4.12,37.63-123.55-13.54Z" fill="#f9f9fa" stroke="#272f5a" stroke-miterlimit="10" stroke-width="5.76"/><path d="M525.34,494.55l3.82-34.89c23.13-11.64,40.1-21.79,50.92-30.7,22.15-17.99,35.04-34.84,36.53-48.37,1.12-10.21-5.01-17.84-14.74-18.91-12.34-1.35-20.19,6.68-23.22,25.56l-42.73-4.68c4.5-41.06,32.75-64.39,71.92-60.11,35.84,3.93,57.27,29.81,54.23,57.59-3.07,28.01-21.28,51.72-68.27,83.81l59.58,6.52-4.13,37.74-123.91-13.57Z" fill="#fafbfc" stroke="#272f5a" stroke-miterlimit="10" stroke-width="5.82"/><path d="M525.36,494.27l3.83-35c23.2-11.67,40.22-21.86,51.07-30.79,22.21-18.05,35.14-34.94,36.63-48.51,1.12-10.24-5.03-17.9-14.79-18.96-12.38-1.35-20.25,6.7-23.28,25.64l-42.85-4.69c4.51-41.18,32.85-64.58,72.13-60.28,35.95,3.93,57.44,29.9,54.39,57.75-3.07,28.09-21.34,51.87-68.46,84.05l59.75,6.54-4.14,37.85-124.27-13.6Z" fill="#fcfcfd" stroke="#272f5a" stroke-miterlimit="10" stroke-width="5.88"/><path d="M525.39,493.99l3.84-35.1c23.27-11.71,40.33-21.92,51.22-30.88,22.28-18.1,35.24-35.04,36.73-48.65,1.12-10.27-5.04-17.95-14.83-19.02-12.42-1.36-20.31,6.72-23.35,25.71l-42.98-4.7c4.52-41.3,32.94-64.77,72.33-60.46,36.05,3.94,57.61,29.98,54.55,57.91-3.08,28.17-21.4,52.02-68.66,84.3l59.93,6.56-4.15,37.96-124.63-13.63Z" fill="#fdfefe" stroke="#272f5a" stroke-miterlimit="10" stroke-width="5.94"/><text transform="translate(513.2 492.37) rotate(6.24)" fill="#fff" font-family="ITCAvantGardePro-Bold, &apos;ITC Avant Garde Gothic Pro&apos;" font-size="240.88" font-weight="700" stroke="#272f5a" stroke-miterlimit="10" stroke-width="6"><tspan x="0" y="0">2</tspan></text><path d="M548.25,330.77l1.53-8.69-8.67,1.67c-8.19,1.58-12.19,2.33-20.4,3.83l-4.46.82-.49,4.51c-.67,6.18-1.18,10.81-1.72,15.38-2.93-4.35-5.72-8.51-9.48-14.13l-2.2-3.29-3.9.67c-8.27,1.43-12.33,2.12-20.67,3.48l-1.21.2-2.62.42c-16.13,2.61-32.45,5.07-48.53,7.31l-6.31.88,1.29,6.86c-.35-.2-.7-.41-1.06-.59-6.18-3.25-14.96-4.16-26.83-2.79l-.94.11c-6.83.85-11.28,1.39-16.67,2.01-2.36.27-4.91.56-7.91.9l-3.99.45-3.02.33c-14.16,1.55-28.51,2.98-42.65,4.25l-2.27.2-2.21.19c-7.82.69-11.65,1.01-19.48,1.62l-4.87.38-.67,4.84c-.07.5-.14,1-.21,1.5l-10.83-5.48-4.85.33c-5.92.41-8.88.6-14.81.97l-4.69,1.74-.83,2.95-10.32-1.27-.61-2.46-5.01.26c-7.95.41-11.8.6-19.64.94l-7.68.33.96,3.39-12.29,1.09c-6.88-3.52-14.42-5.27-21.84-4.95-1.01.04-2.03.12-3.03.24-23.4,2.7-43.09,25.36-43.89,50.51-.34,10.65,3.26,21.01,9.99,29.26h0s.14.16.14.16c.83,1.01,1.7,1.99,2.63,2.94l20.04,22.42c.27.3.53.61.81.9l.14.16h0c.37.39.73.78,1.11,1.17,3.23,3.22,6.86,5.8,10.73,7.67-4.47,7.6-7.19,16.21-7.52,25.14-.3,7.99,1.89,15.54,6.23,21.92h0s.04.05.04.05c.93,1.36,1.95,2.66,3.07,3.9l16.27,20.63c.86,1.23,1.78,2.41,2.79,3.54h0s0,.01,0,.01c.44.49.89.97,1.36,1.44,8.66,8.69,21.16,12.99,33.44,11.5h0c1-.12,2-.28,2.97-.48,11.71-2.35,24.59-10.03,33.23-21.62l6.2,12.54,6.21-1.12c14.11-2.54,28.5-4.97,42.76-7.23l2.28-.36,1.5-.23c8.69-1.36,12.92-2,21.53-3.26l3.71-.54.93-3.92c.67-2.8,1.11-4.69,1.62-6.85,7.3-1.03,12.21-1.69,19.54-2.65.97,1.92,1.83,3.61,3.1,6.1l1.84,3.61,3.76-.49c6.12-.79,10.09-1.29,14.93-1.88,2.06-.25,15.83-1.88,15.83-1.88l-2.33-3.92c6.31,3.06,13.61,4.15,20.49,3.31.27-.03.54-.07.81-.11,5.17-.74,17.93-3.57,24.64-13.86.18-.27.33-.56.49-.84l1.97,10.67,5.01-.45c8.08-.73,12-1.06,19.98-1.7l6.37-.51,6.88-24.39h0s0,0,0,0l-1.11-5.23c.8-.07,1.61-.14,2.47-.22l6.23,28.77,4.76-.33c8.07-.55,11.99-.8,20.01-1.28l6.72-.4,10.79-24.58h0s-15.14-61.82-15.14-61.82l5.25-.64,11.23-24.6h0s-8.38-32.31-8.38-32.31c3.42-16.48,6.64-33.32,9.58-50.07Z" fill="#272f5a" stroke-width="0"/><path d="M221.54,445.98c-1.51.28-3.12.57-5.06.8-10.99,1.28-16.64-1.98-18.81-3.97-9.18,6.63-17.12,8.1-22.35,8.75-22.54,2.81-41.65-16.6-40.95-38.66.69-21.72,18.48-43.9,41.1-44.87,20.76-.88,40.8,17.15,41.34,37.98.33,12.71-4.06,19.65-6.04,22.88,2.49,1.95,5.7,2.04,10.4,1.56.14,6.21.22,9.32.36,15.53ZM175.39,386.07c-9.02.39-16.45,6.39-19.75,16.69-.33,1.13-.77,2.16-.89,3.39,2.32-.92,6.32-2.7,11.45-3.01,5.66-.34,10.56.59,16.44,4.37,5.14,3.3,8.21,6.06,12.26,10.18,1.25-2.55,2.03-6.15,2.03-10.15,0-12-9.18-21.97-21.45-21.48h-.1ZM175.29,433.53c3.2-.31,6.4-1.27,7.99-2.39-2.45-3-4.67-4.96-6.68-6.52-4.02-3.12-8.66-4.07-12.57-3.75-3.39.27-5.72,1.01-7.32,1.8,3.26,8.28,11.97,11.5,18.47,10.87.04,0,.06,0,.11-.01Z" fill="#fff" stroke-width="0"/><path d="M216.32,368.17c7.88-.34,11.82-.53,19.69-.94,3.99,16.04,8.12,32.05,12.39,48.02,3.14-16.4,6.18-32.82,9.13-49.25,5.94-.37,8.91-.56,14.85-.97,4.67,15.59,9.5,31.14,14.47,46.64,2.44-16.06,4.79-32.14,7.02-48.23,7.81-.62,11.72-.94,19.53-1.63-4.56,24.69-9.38,49.32-14.44,73.91-7.16.82-10.74,1.24-17.89,2.06-5.1-15.37-10.04-30.8-14.83-46.27-3.01,16.37-6.11,32.72-9.31,49.05-7.37.85-11.06,1.27-18.42,2.12-7.76-24.73-15.15-49.56-22.19-74.5Z" fill="#fff" stroke-width="0"/><path d="M317.9,361.41c14.27-1.28,28.52-2.7,42.77-4.26.84,6.32,1.26,9.47,2.1,15.79-9.5,1.05-14.25,1.56-23.76,2.54.5,4.4.75,6.6,1.25,11,9.3-.98,13.95-1.48,23.24-2.52.84,6.32,1.25,9.47,2.09,15.79-9.41,1.06-14.12,1.59-23.53,2.61.55,4.86.83,7.29,1.38,12.15,9.8-1.1,14.7-1.65,24.5-2.77.84,6.32,1.26,9.47,2.1,15.79-15.06,1.74-30.12,3.48-45.17,5.21-2.31-23.78-4.63-47.55-6.94-71.33Z" fill="#fff" stroke-width="0"/><path d="M367.69,356.37c9.86-1.11,14.79-1.7,24.64-2.92,11.8-1.46,19.46-.46,24.19,2.03,7.14,3.72,11.33,10.29,12.77,18,1.01,5.43.13,9.85-1.5,13.25-1.93,4.04-5.31,6.89-8.75,8.76,8.27,9.55,12.47,14.33,21.02,23.94-8.4.97-12.61,1.46-21.01,2.43-8.76-10.43-17.44-20.91-26.06-31.47,1.3-.15,1.95-.23,3.25-.39,5.03-.6,9.29-1.5,11.64-3.34,2.17-1.7,3.58-5.29,2.92-9.18-.63-3.7-3.12-6.43-5.94-7.6-2.35-.97-5.57-1.24-8.26-.91-2.89.35-4.33.53-7.22.88,2.81,18.15,5.63,36.31,8.44,54.46-8.15.94-12.22,1.41-20.37,2.35-3.25-23.44-6.5-46.87-9.76-70.31Z" fill="#fff" stroke-width="0"/><path d="M444.28,362.74c-6.01.84-9.01,1.25-15.02,2.05-1.19-6.33-1.78-9.49-2.97-15.82,16.25-2.27,32.47-4.71,48.66-7.33,1.46,6.45,2.19,9.67,3.65,16.12-5.95.9-8.93,1.34-14.89,2.21,3.97,18.45,7.94,36.89,11.9,55.34-8.14.94-12.21,1.42-20.36,2.36-3.66-18.31-7.32-36.62-10.98-54.93Z" fill="#fff" stroke-width="0"/><path d="M512.56,383.73c-11.32-14.18-22.59-28.42-33.77-42.71,8.3-1.36,12.44-2.05,20.72-3.49,7.31,10.94,11.02,16.45,18.57,27.56,1.62-12.5,2.36-18.8,3.74-31.53,8.19-1.5,12.28-2.27,20.45-3.84-3.01,17.15-6.28,34.23-9.83,51.28,2.79,10.77,4.19,16.15,6.99,26.92-8.13.94-12.19,1.42-20.33,2.36-2.61-10.62-3.92-15.93-6.53-26.54Z" fill="#fff" stroke-width="0"/><path d="M257.66,498.73c-4.3,18.95-22.82,33.56-41.22,37.04-21.01,3.97-44.88-9.5-44-33.01.86-23.02,19.61-43.63,42.26-46.98,16.74-2.47,37.36,7.38,42.12,24.65-8.76,1.25-13.13,1.88-21.88,3.16-2.5-5.29-8.93-12.12-20.02-10.5-12.75,1.86-21.41,13.51-21.54,26.06-.12,12.28,10.1,21.72,22.51,19.36,13.09-2.48,18.38-13.41,19.63-16.29,8.85-1.43,13.28-2.12,22.14-3.49Z" fill="#fff" stroke-width="0"/><path d="M262.36,451.33c8.21-1.01,12.31-1.51,20.52-2.5,1.23,18.87,2.46,37.74,3.69,56.61,9.88-1.5,14.83-2.23,24.72-3.65.53,6.46.8,9.69,1.34,16.15-15.53,2.33-31.04,4.8-46.53,7.43-1.25-24.68-2.49-49.35-3.74-74.03Z" fill="#fff" stroke-width="0"/><path d="M340.16,513.97c-9.38,1.3-14.06,1.97-23.43,3.35,8.86-25.11,17.45-50.3,25.69-75.62,7.09-.84,10.63-1.25,17.72-2.08,13.4,22.45,27.17,44.64,41.29,66.65-9.49,1.07-14.24,1.63-23.72,2.8-2.14-3.88-3.2-5.81-5.31-9.69-11.78,1.45-17.66,2.21-29.43,3.79-1.11,4.32-1.67,6.48-2.8,10.81ZM352.86,462.27c-2.39,10.29-3.61,15.45-6.13,25.8,7.33-.94,11-1.41,18.33-2.31-4.95-9.38-7.39-14.07-12.2-23.49Z" fill="#fff" stroke-width="0"/><path d="M418.49,480.74c1.34,8.16,7.59,8.95,10.32,8.67,5.11-.53,7.56-4.35,6.99-7.58-.65-3.71-4.39-4.51-17.93-7.68-6.16-1.36-21.58-4.86-23.29-17.86-1.88-14.29,12.18-23.57,24.91-24.86,13.71-1.39,27.74,4.3,31.24,18.89-8.27.87-12.4,1.31-20.66,2.21-.86-2.33-2.3-6.72-8.68-6.02-3.63.4-6.78,2.98-6.24,6.3.53,3.23,2.83,3.82,18.63,7.94,16.38,4.27,21.49,10.13,23.13,18.23,3.23,15.89-12.1,23.63-25.32,25.43-14.96,2.03-32.2-4.62-34.3-21.3,8.48-.97,12.71-1.44,21.19-2.35Z" fill="#fff" stroke-width="0"/><path d="M466.74,499.74c-4.63-23.57-9.26-47.15-13.89-70.72,8.22-.92,12.32-1.37,20.54-2.28,2.27,10.7,3.4,16.05,5.66,26.75,10.75-1.05,16.12-1.57,26.87-2.56-2.5-10.83-3.75-16.25-6.25-27.08,8.21-.9,12.32-1.34,20.53-2.23,5.95,24.32,11.91,48.63,17.86,72.95-8.71.51-13.06.78-21.76,1.36-2.66-11.53-3.99-17.3-6.65-28.83-10.89.91-16.34,1.38-27.22,2.37,2.41,11.39,3.62,17.09,6.03,28.49-8.69.68-13.04,1.04-21.73,1.79Z" fill="#fff" stroke-width="0"/></g><g id="Layer_1_copy"><text transform="translate(513.97 513.93) rotate(6.57)" fill="#8d92a8" font-family="ITCAvantGardePro-Bold, &apos;ITC Avant Garde Gothic Pro&apos;" font-size="188.03" font-weight="700" stroke="#272f5a" stroke-miterlimit="10" stroke-width="1.42"><tspan x="0" y="0">2</tspan></text><path d="M523.52,514.75l3.17-27.56c18.34-9.1,31.79-17.05,40.38-24.04,17.58-14.12,27.85-27.38,29.08-38.07.93-8.06-3.88-14.13-11.57-15.01-9.75-1.12-15.99,5.19-18.46,20.1l-33.75-3.89c3.73-32.44,26.17-50.75,57.11-47.19,28.31,3.26,45.13,23.81,42.61,45.75-2.55,22.12-17.04,40.78-54.33,65.94l47.06,5.42-3.43,29.81-97.87-11.27Z" fill="#8f93a9" stroke="#272f5a" stroke-miterlimit="10" stroke-width="1.48"/><path d="M523.55,514.47l3.18-27.66c18.4-9.13,31.9-17.11,40.53-24.13,17.65-14.18,27.95-27.48,29.18-38.21.93-8.09-3.9-14.18-11.61-15.06-9.79-1.13-16.04,5.21-18.53,20.18l-33.87-3.9c3.74-32.56,26.26-50.94,57.31-47.37,28.42,3.27,45.3,23.9,42.77,45.91-2.55,22.21-17.1,40.93-54.52,66.18l47.23,5.43-3.44,29.92-98.23-11.3Z" fill="#9095aa" stroke="#272f5a" stroke-miterlimit="10" stroke-width="1.54"/><path d="M523.58,514.19l3.19-27.76c18.47-9.17,32.02-17.18,40.68-24.22,17.71-14.23,28.05-27.59,29.29-38.35.93-8.12-3.91-14.23-11.66-15.12-9.82-1.13-16.1,5.23-18.59,20.25l-34-3.91c3.76-32.68,26.35-51.13,57.52-47.55,28.52,3.28,45.47,23.98,42.93,46.08-2.56,22.29-17.16,41.09-54.71,66.43l47.41,5.45-3.45,30.03-98.59-11.33Z" fill="#9296ab" stroke="#272f5a" stroke-miterlimit="10" stroke-width="1.6"/><path d="M523.6,513.91l3.2-27.87c18.54-9.2,32.14-17.25,40.82-24.31,17.77-14.28,28.15-27.69,29.39-38.5.94-8.15-3.93-14.28-11.7-15.17-9.86-1.13-16.16,5.25-18.66,20.33l-34.12-3.92c3.77-32.8,26.44-51.32,57.72-47.73,28.63,3.29,45.64,24.06,43.09,46.24-2.57,22.37-17.22,41.24-54.91,66.68l47.58,5.46-3.46,30.14-98.96-11.36Z" fill="#9398ad" stroke="#272f5a" stroke-miterlimit="10" stroke-width="1.66"/><path d="M523.63,513.63l3.21-27.97c18.6-9.24,32.25-17.31,40.97-24.41,17.84-14.34,28.25-27.79,29.49-38.64.94-8.18-3.95-14.33-11.75-15.23-9.89-1.14-16.22,5.27-18.73,20.41l-34.25-3.93c3.78-32.92,26.54-51.51,57.93-47.91,28.73,3.3,45.81,24.15,43.25,46.41-2.58,22.45-17.28,41.39-55.1,66.93l47.76,5.48-3.47,30.25-99.32-11.4Z" fill="#9599ae" stroke="#272f5a" stroke-miterlimit="10" stroke-width="1.72"/><path d="M523.65,513.35l3.22-28.07c18.67-9.27,32.37-17.38,41.11-24.5,17.9-14.39,28.35-27.9,29.6-38.78.94-8.21-3.96-14.38-11.79-15.28-9.93-1.14-16.28,5.29-18.79,20.48l-34.37-3.94c3.79-33.04,26.63-51.7,58.14-48.09,28.83,3.31,45.98,24.23,43.41,46.57-2.58,22.53-17.34,41.54-55.29,67.18l47.93,5.5-3.48,30.36-99.68-11.43Z" fill="#969baf" stroke="#272f5a" stroke-miterlimit="10" stroke-width="1.78"/><path d="M523.68,513.07l3.23-28.17c18.74-9.31,32.48-17.44,41.26-24.59,17.96-14.45,28.45-28,29.7-38.93.94-8.24-3.98-14.44-11.83-15.34-9.97-1.14-16.34,5.31-18.86,20.56l-34.5-3.95c3.8-33.16,26.72-51.89,58.34-48.27,28.94,3.31,46.14,24.31,43.58,46.74-2.59,22.61-17.4,41.69-55.49,67.43l48.1,5.51-3.49,30.47-100.04-11.46Z" fill="#989cb0" stroke="#272f5a" stroke-miterlimit="10" stroke-width="1.84"/><path d="M523.7,512.79l3.24-28.27c18.8-9.34,32.6-17.51,41.41-24.68,18.03-14.5,28.55-28.1,29.8-39.07.95-8.27-3.99-14.49-11.88-15.39-10-1.14-16.39,5.33-18.92,20.63l-34.62-3.96c3.81-33.28,26.81-52.08,58.55-48.44,29.04,3.32,46.31,24.4,43.74,46.9-2.6,22.7-17.46,41.85-55.68,67.67l48.28,5.53-3.5,30.58-100.4-11.49Z" fill="#999db1" stroke="#272f5a" stroke-miterlimit="10" stroke-width="1.9"/><path d="M523.73,512.51l3.25-28.38c18.87-9.38,32.71-17.58,41.55-24.78,18.09-14.55,28.65-28.21,29.91-39.21.95-8.3-4.01-14.54-11.92-15.44-10.04-1.15-16.45,5.35-18.99,20.71l-34.75-3.97c3.82-33.39,26.9-52.27,58.75-48.62,29.15,3.33,46.48,24.48,43.9,47.06-2.6,22.78-17.51,42-55.87,67.92l48.45,5.54-3.51,30.69-100.76-11.52Z" fill="#9b9fb2" stroke="#272f5a" stroke-miterlimit="10" stroke-width="1.97"/><path d="M523.75,512.22l3.25-28.48c18.94-9.42,32.83-17.64,41.7-24.87,18.15-14.61,28.75-28.31,30.01-39.35.95-8.33-4.02-14.59-11.97-15.5-10.07-1.15-16.51,5.38-19.06,20.78l-34.87-3.98c3.83-33.51,26.99-52.46,58.96-48.8,29.25,3.34,46.65,24.56,44.06,47.23-2.61,22.86-17.57,42.15-56.07,68.17l48.63,5.56-3.52,30.8-101.13-11.56Z" fill="#9ca0b3" stroke="#272f5a" stroke-miterlimit="10" stroke-width="2.03"/><path d="M523.78,511.94l3.26-28.58c19-9.45,32.94-17.71,41.85-24.96,18.22-14.66,28.85-28.42,30.11-39.5.95-8.36-4.04-14.64-12.01-15.55-10.11-1.15-16.57,5.4-19.12,20.86l-35-4c3.84-33.63,27.08-52.65,59.16-48.98,29.36,3.35,46.82,24.65,44.22,47.39-2.62,22.94-17.63,42.3-56.26,68.42l48.8,5.57-3.53,30.91-101.49-11.59Z" fill="#9ea2b5" stroke="#272f5a" stroke-miterlimit="10" stroke-width="2.09"/><path d="M523.8,511.66l3.27-28.68c19.07-9.49,33.06-17.77,41.99-25.05,18.28-14.71,28.95-28.52,30.22-39.64.96-8.39-4.06-14.69-12.06-15.61-10.15-1.16-16.63,5.42-19.19,20.94l-35.12-4.01c3.85-33.75,27.18-52.84,59.37-49.16,29.46,3.36,46.99,24.73,44.38,47.56-2.63,23.02-17.69,42.45-56.46,68.67l48.97,5.59-3.54,31.02-101.85-11.62Z" fill="#9fa3b6" stroke="#272f5a" stroke-miterlimit="10" stroke-width="2.15"/><path d="M523.83,511.38l3.28-28.78c19.14-9.52,33.17-17.84,42.14-25.15,18.34-14.77,29.05-28.62,30.32-39.78.96-8.42-4.07-14.75-12.1-15.66-10.18-1.16-16.69,5.44-19.25,21.01l-35.25-4.02c3.86-33.87,27.27-53.02,59.58-49.34,29.57,3.37,47.16,24.81,44.54,47.72-2.63,23.11-17.75,42.61-56.65,68.91l49.15,5.6-3.55,31.13-102.21-11.65Z" fill="#a1a5b7" stroke="#272f5a" stroke-miterlimit="10" stroke-width="2.21"/><path d="M523.85,511.1l3.29-28.89c19.2-9.56,33.29-17.9,42.29-25.24,18.41-14.82,29.15-28.73,30.42-39.93.96-8.45-4.09-14.8-12.14-15.71-10.22-1.16-16.74,5.46-19.32,21.09l-35.37-4.03c3.87-33.99,27.36-53.21,59.78-49.52,29.67,3.38,47.32,24.9,44.71,47.89-2.64,23.19-17.81,42.76-56.84,69.16l49.32,5.62-3.56,31.24-102.57-11.68Z" fill="#a2a6b8" stroke="#272f5a" stroke-miterlimit="10" stroke-width="2.27"/><path d="M523.88,510.82l3.3-28.99c19.27-9.59,33.41-17.97,42.43-25.33,18.47-14.88,29.25-28.83,30.53-40.07.97-8.48-4.1-14.85-12.19-15.77-10.25-1.17-16.8,5.48-19.39,21.16l-35.49-4.04c3.88-34.11,27.45-53.4,59.99-49.7,29.78,3.39,47.49,24.98,44.87,48.05-2.65,23.27-17.87,42.91-57.04,69.41l49.49,5.63-3.57,31.35-102.93-11.72Z" fill="#a4a8b9" stroke="#272f5a" stroke-miterlimit="10" stroke-width="2.33"/><path d="M523.9,510.54l3.31-29.09c19.34-9.63,33.52-18.04,42.58-25.42,18.53-14.93,29.35-28.93,30.63-40.21.97-8.51-4.12-14.9-12.23-15.82-10.29-1.17-16.86,5.5-19.45,21.24l-35.62-4.05c3.89-34.23,27.54-53.59,60.19-49.88,29.88,3.4,47.66,25.06,45.03,48.22-2.66,23.35-17.93,43.06-57.23,69.66l49.67,5.65-3.58,31.46-103.29-11.75Z" fill="#a5a9ba" stroke="#272f5a" stroke-miterlimit="10" stroke-width="2.39"/><path d="M523.93,510.26l3.32-29.19c19.4-9.66,33.64-18.1,42.73-25.52,18.6-14.98,29.45-29.04,30.73-40.36.97-8.54-4.13-14.95-12.28-15.88-10.33-1.17-16.92,5.52-19.52,21.32l-35.74-4.06c3.9-34.35,27.63-53.78,60.4-50.06,29.99,3.41,47.83,25.15,45.19,48.38-2.66,23.43-17.98,43.21-57.42,69.91l49.84,5.66-3.59,31.57-103.66-11.78Z" fill="#a7aabb" stroke="#272f5a" stroke-miterlimit="10" stroke-width="2.45"/><path d="M523.95,509.98l3.33-29.29c19.47-9.7,33.75-18.17,42.87-25.61,18.66-15.04,29.55-29.14,30.84-40.5.97-8.57-4.15-15-12.32-15.93-10.36-1.18-16.98,5.54-19.59,21.39l-35.87-4.07c3.91-34.47,27.73-53.97,60.6-50.24,30.09,3.42,48,25.23,45.35,48.54-2.67,23.51-18.04,43.36-57.62,70.16l50.02,5.68-3.6,31.68-104.02-11.81Z" fill="#a8acbd" stroke="#272f5a" stroke-miterlimit="10" stroke-width="2.51"/><path d="M523.98,509.7l3.34-29.39c19.54-9.73,33.87-18.23,43.02-25.7,18.73-15.09,29.65-29.24,30.94-40.64.98-8.6-4.17-15.06-12.36-15.99-10.4-1.18-17.04,5.56-19.65,21.47l-35.99-4.08c3.92-34.59,27.82-54.16,60.81-50.42,30.19,3.43,48.17,25.31,45.51,48.71-2.68,23.6-18.1,43.52-57.81,70.4l50.19,5.69-3.61,31.79-104.38-11.84Z" fill="#aaadbe" stroke="#272f5a" stroke-miterlimit="10" stroke-width="2.57"/><path d="M524,509.42l3.34-29.5c19.6-9.77,33.98-18.3,43.16-25.79,18.79-15.14,29.75-29.35,31.04-40.79.98-8.63-4.18-15.11-12.41-16.04-10.43-1.18-17.09,5.58-19.72,21.54l-36.12-4.1c3.94-34.71,27.91-54.35,61.02-50.6,30.3,3.44,48.34,25.4,45.67,48.87-2.68,23.68-18.16,43.67-58.01,70.65l50.36,5.71-3.62,31.9-104.74-11.88Z" fill="#abafbf" stroke="#272f5a" stroke-miterlimit="10" stroke-width="2.63"/><path d="M524.03,509.14l3.35-29.6c19.67-9.8,34.1-18.37,43.31-25.89,18.85-15.2,29.85-29.45,31.15-40.93.98-8.66-4.2-15.16-12.45-16.09-10.47-1.19-17.15,5.6-19.78,21.62l-36.24-4.11c3.95-34.83,28-54.54,61.22-50.78,30.4,3.44,48.5,25.48,45.84,49.04-2.69,23.76-18.22,43.82-58.2,70.9l50.54,5.73-3.63,32.01-105.1-11.91Z" fill="#adb0c0" stroke="#272f5a" stroke-miterlimit="10" stroke-width="2.69"/><path d="M524.05,508.86l3.36-29.7c19.74-9.84,34.21-18.43,43.46-25.98,18.92-15.25,29.95-29.55,31.25-41.07.98-8.69-4.21-15.21-12.5-16.15-10.51-1.19-17.21,5.62-19.85,21.69l-36.37-4.12c3.96-34.95,28.09-54.73,61.43-50.96,30.51,3.45,48.67,25.56,46,49.2-2.7,23.84-18.28,43.97-58.39,71.15l50.71,5.74-3.64,32.12-105.46-11.94Z" fill="#aeb2c1" stroke="#272f5a" stroke-miterlimit="10" stroke-width="2.75"/><path d="M524.08,508.58l3.37-29.8c19.8-9.87,34.33-18.5,43.6-26.07,18.98-15.31,30.05-29.66,31.35-41.21.99-8.72-4.23-15.26-12.54-16.2-10.54-1.19-17.27,5.64-19.92,21.77l-36.49-4.13c3.97-35.07,28.18-54.92,61.63-51.14,30.61,3.46,48.84,25.65,46.16,49.37-2.71,23.92-18.34,44.12-58.59,71.4l50.89,5.76-3.65,32.23-105.83-11.97Z" fill="#b0b3c2" stroke="#272f5a" stroke-miterlimit="10" stroke-width="2.81"/><path d="M524.1,508.3l3.38-29.9c19.87-9.91,34.44-18.56,43.75-26.16,19.04-15.36,30.15-29.76,31.46-41.36.99-8.75-4.24-15.31-12.58-16.26-10.58-1.2-17.33,5.66-19.98,21.85l-36.62-4.14c3.98-35.19,28.27-55.11,61.84-51.31,30.72,3.47,49.01,25.73,46.32,49.53-2.71,24-18.4,44.28-58.78,71.64l51.06,5.77-3.66,32.34-106.19-12Z" fill="#b1b4c3" stroke="#272f5a" stroke-miterlimit="10" stroke-width="2.87"/><path d="M524.13,508.02l3.39-30.01c19.94-9.94,34.56-18.63,43.9-26.26,19.11-15.41,30.25-29.87,31.56-41.5.99-8.78-4.26-15.37-12.63-16.31-10.61-1.2-17.39,5.69-20.05,21.92l-36.74-4.15c3.99-35.31,28.37-55.3,62.04-51.49,30.82,3.48,49.18,25.81,46.48,49.7-2.72,24.09-18.46,44.43-58.97,71.89l51.23,5.79-3.67,32.45-106.55-12.03Z" fill="#b3b6c5" stroke="#272f5a" stroke-miterlimit="10" stroke-width="2.93"/><path d="M524.15,507.74l3.4-30.11c20-9.98,34.68-18.7,44.04-26.35,19.17-15.47,30.35-29.97,31.66-41.64.99-8.81-4.28-15.42-12.67-16.36-10.65-1.2-17.45,5.71-20.11,22l-36.87-4.16c4-35.43,28.46-55.49,62.25-51.67,30.93,3.49,49.35,25.9,46.64,49.86-2.73,24.17-18.51,44.58-59.17,72.14l51.41,5.8-3.68,32.56-106.91-12.07Z" fill="#b4b7c6" stroke="#272f5a" stroke-miterlimit="10" stroke-width="2.99"/><path d="M524.18,507.46l3.41-30.21c20.07-10.02,34.79-18.76,44.19-26.44,19.23-15.52,30.45-30.07,31.77-41.79,1-8.84-4.29-15.47-12.72-16.42-10.69-1.21-17.5,5.73-20.18,22.07l-36.99-4.17c4.01-35.55,28.55-55.68,62.46-51.85,31.03,3.5,49.52,25.98,46.8,50.02-2.73,24.25-18.57,44.73-59.36,72.39l51.58,5.82-3.69,32.68-107.27-12.1Z" fill="#b6b9c7" stroke="#272f5a" stroke-miterlimit="10" stroke-width="3.05"/><path d="M524.2,507.17l3.42-30.31c20.14-10.05,34.91-18.83,44.34-26.53,19.3-15.57,30.55-30.18,31.87-41.93,1-8.87-4.31-15.52-12.76-16.47-10.72-1.21-17.56,5.75-20.25,22.15l-37.12-4.18c4.02-35.67,28.64-55.87,62.66-52.03,31.14,3.51,49.68,26.06,46.97,50.19-2.74,24.33-18.63,44.88-59.56,72.64l51.76,5.83-3.69,32.79-107.63-12.13Z" fill="#b7bac8" stroke="#272f5a" stroke-miterlimit="10" stroke-width="3.11"/><path d="M524.23,506.89l3.43-30.41c20.2-10.09,35.02-18.89,44.48-26.63,19.36-15.63,30.65-30.28,31.98-42.07,1-8.9-4.32-15.57-12.8-16.53-10.76-1.21-17.62,5.77-20.31,22.23l-37.24-4.19c4.03-35.79,28.73-56.06,62.87-52.21,31.24,3.52,49.85,26.15,47.13,50.35-2.75,24.41-18.69,45.04-59.75,72.89l51.93,5.85-3.7,32.9-108-12.16Z" fill="#b9bcc9" stroke="#272f5a" stroke-miterlimit="10" stroke-width="3.17"/><path d="M524.26,506.61l3.43-30.51c20.27-10.12,35.14-18.96,44.63-26.72,19.42-15.68,30.75-30.38,32.08-42.22,1-8.93-4.34-15.62-12.85-16.58-10.79-1.21-17.68,5.79-20.38,22.3l-37.36-4.21c4.04-35.91,28.82-56.25,63.07-52.39,31.34,3.53,50.02,26.23,47.29,50.52-2.76,24.49-18.75,45.19-59.94,73.13l52.1,5.86-3.71,33.01-108.36-12.19Z" fill="#babdca" stroke="#272f5a" stroke-miterlimit="10" stroke-width="3.23"/><path d="M524.28,506.33l3.44-30.62c20.34-10.16,35.25-19.02,44.78-26.81,19.49-15.74,30.85-30.49,32.18-42.36,1.01-8.96-4.35-15.68-12.89-16.64-10.83-1.22-17.74,5.81-20.44,22.38l-37.49-4.22c4.05-36.03,28.91-56.44,63.28-52.57,31.45,3.54,50.19,26.31,47.45,50.68-2.76,24.58-18.81,45.34-60.14,73.38l52.28,5.88-3.72,33.12-108.72-12.23Z" fill="#bcbecb" stroke="#272f5a" stroke-miterlimit="10" stroke-width="3.29"/><path d="M524.31,506.05l3.45-30.72c20.4-10.19,35.37-19.09,44.92-26.9,19.55-15.79,30.95-30.59,32.29-42.5,1.01-8.99-4.37-15.73-12.94-16.69-10.87-1.22-17.8,5.83-20.51,22.45l-37.61-4.23c4.06-36.15,29.01-56.62,63.49-52.75,31.55,3.55,50.36,26.4,47.61,50.85-2.77,24.66-18.87,45.49-60.33,73.63l52.45,5.89-3.73,33.23-109.08-12.26Z" fill="#bdc0cd" stroke="#272f5a" stroke-miterlimit="10" stroke-width="3.35"/><path d="M524.33,505.77l3.46-30.82c20.47-10.23,35.48-19.16,45.07-27,19.61-15.84,31.05-30.69,32.39-42.65,1.01-9.02-4.38-15.78-12.98-16.74-10.9-1.22-17.85,5.85-20.58,22.53l-37.74-4.24c4.07-36.27,29.1-56.81,63.69-52.93,31.66,3.56,50.53,26.48,47.77,51.01-2.78,24.74-18.93,45.64-60.52,73.88l52.62,5.91-3.74,33.34-109.44-12.29Z" fill="#bfc1ce" stroke="#272f5a" stroke-miterlimit="10" stroke-width="3.41"/><path d="M524.36,505.49l3.47-30.92c20.54-10.26,35.6-19.22,45.21-27.09,19.68-15.9,31.15-30.8,32.49-42.79,1.01-9.05-4.4-15.83-13.03-16.8-10.94-1.23-17.91,5.87-20.64,22.61l-37.86-4.25c4.08-36.39,29.19-57,63.9-53.11,31.76,3.56,50.7,26.56,47.93,51.17-2.79,24.82-18.98,45.8-60.72,74.13l52.8,5.93-3.75,33.45-109.8-12.32Z" fill="#c0c3cf" stroke="#272f5a" stroke-miterlimit="10" stroke-width="3.47"/><path d="M524.38,505.21l3.48-31.02c20.6-10.3,35.71-19.29,45.36-27.18,19.74-15.95,31.25-30.9,32.6-42.93,1.02-9.08-4.42-15.88-13.07-16.85-10.97-1.23-17.97,5.89-20.71,22.68l-37.99-4.26c4.09-36.51,29.28-57.19,64.1-53.29,31.87,3.57,50.86,26.65,48.09,51.34-2.79,24.9-19.04,45.95-60.91,74.38l52.97,5.94-3.76,33.56-110.17-12.35Z" fill="#c2c4d0" stroke="#272f5a" stroke-miterlimit="10" stroke-width="3.53"/><path d="M524.41,504.93l3.49-31.13c20.67-10.33,35.83-19.35,45.51-27.27,19.8-16,31.35-31.01,32.7-43.07,1.02-9.1-4.43-15.93-13.11-16.91-11.01-1.23-18.03,5.91-20.77,22.76l-38.11-4.27c4.11-36.63,29.37-57.38,64.31-53.47,31.97,3.58,51.03,26.73,48.26,51.5-2.8,24.98-19.1,46.1-61.1,74.62l53.15,5.96-3.77,33.67-110.53-12.39Z" fill="#c3c6d1" stroke="#272f5a" stroke-miterlimit="10" stroke-width="3.59"/><path d="M524.43,504.65l3.5-31.23c20.73-10.37,35.94-19.42,45.65-27.37,19.87-16.06,31.45-31.11,32.8-43.22,1.02-9.13-4.45-15.98-13.16-16.96-11.05-1.24-18.09,5.93-20.84,22.83l-38.24-4.28c4.12-36.75,29.46-57.57,64.51-53.65,32.08,3.59,51.2,26.81,48.42,51.67-2.81,25.07-19.16,46.25-61.3,74.87l53.32,5.97-3.78,33.78-110.89-12.42Z" fill="#c5c7d2" stroke="#272f5a" stroke-miterlimit="10" stroke-width="3.65"/><path d="M524.46,504.37l3.51-31.33c20.8-10.4,36.06-19.49,45.8-27.46,19.93-16.11,31.55-31.21,32.91-43.36,1.03-9.16-4.46-16.04-13.2-17.01-11.08-1.24-18.15,5.95-20.91,22.91l-38.36-4.29c4.13-36.87,29.55-57.76,64.72-53.83,32.18,3.6,51.37,26.9,48.58,51.83-2.81,25.15-19.22,46.4-61.49,75.12l53.49,5.99-3.79,33.89-111.25-12.45Z" fill="#c6c9d4" stroke="#272f5a" stroke-miterlimit="10" stroke-width="3.71"/><path d="M524.48,504.09l3.52-31.43c20.87-10.44,36.18-19.55,45.95-27.55,19.99-16.17,31.65-31.32,33.01-43.5,1.03-9.19-4.48-16.09-13.25-17.07-11.12-1.24-18.2,5.97-20.97,22.98l-38.49-4.3c4.14-36.99,29.65-57.95,64.93-54.01,32.29,3.61,51.54,26.98,48.74,52-2.82,25.23-19.28,46.55-61.69,75.37l53.67,6-3.8,34-111.61-12.48Z" fill="#c7cad5" stroke="#272f5a" stroke-miterlimit="10" stroke-width="3.77"/><path d="M524.51,503.81l3.52-31.53c20.93-10.47,36.29-19.62,46.09-27.64,20.06-16.22,31.75-31.42,33.11-43.65,1.03-9.22-4.49-16.14-13.29-17.12-11.15-1.25-18.26,6-21.04,23.06l-38.61-4.32c4.15-37.11,29.74-58.14,65.13-54.19,32.39,3.62,51.71,27.06,48.9,52.16-2.83,25.31-19.34,46.71-61.88,75.62l53.84,6.02-3.81,34.11-111.97-12.51Z" fill="#c9cbd6" stroke="#272f5a" stroke-miterlimit="10" stroke-width="3.83"/><path d="M524.53,503.53l3.53-31.63c21-10.51,36.41-19.68,46.24-27.74,20.12-16.27,31.85-31.52,33.22-43.79,1.03-9.25-4.51-16.19-13.33-17.18-11.19-1.25-18.32,6.02-21.1,23.14l-38.74-4.33c4.16-37.23,29.83-58.33,65.34-54.36,32.5,3.63,51.88,27.15,49.06,52.33-2.84,25.39-19.4,46.86-62.07,75.86l54.02,6.03-3.82,34.22-112.34-12.55Z" fill="#cacdd7" stroke="#272f5a" stroke-miterlimit="10" stroke-width="3.89"/><path d="M524.56,503.25l3.54-31.74c21.07-10.54,36.52-19.75,46.39-27.83,20.18-16.33,31.95-31.63,33.32-43.93,1.04-9.28-4.53-16.24-13.38-17.23-11.23-1.25-18.38,6.04-21.17,23.21l-38.86-4.34c4.17-37.35,29.92-58.52,65.54-54.54,32.6,3.64,52.04,27.23,49.22,52.49-2.84,25.48-19.45,47.01-62.27,76.11l54.19,6.05-3.83,34.33-112.7-12.58Z" fill="#ccced8" stroke="#272f5a" stroke-miterlimit="10" stroke-width="3.95"/><path d="M524.58,502.97l3.55-31.84c21.13-10.58,36.64-19.82,46.53-27.92,20.25-16.38,32.05-31.73,33.42-44.08,1.04-9.31-4.54-16.29-13.42-17.29-11.26-1.26-18.44,6.06-21.24,23.29l-38.99-4.35c4.18-37.47,30.01-58.71,65.75-54.72,32.7,3.65,52.21,27.31,49.39,52.65-2.85,25.56-19.51,47.16-62.46,76.36l54.36,6.06-3.84,34.44-113.06-12.61Z" fill="#cdd0d9" stroke="#272f5a" stroke-miterlimit="10" stroke-width="4.01"/><path d="M524.61,502.69l3.56-31.94c21.2-10.62,36.75-19.88,46.68-28.01,20.31-16.43,32.15-31.83,33.53-44.22,1.04-9.34-4.56-16.35-13.47-17.34-11.3-1.26-18.5,6.08-21.3,23.36l-39.11-4.36c4.19-37.59,30.1-58.9,65.95-54.9,32.81,3.66,52.38,27.4,49.55,52.82-2.86,25.64-19.57,47.31-62.65,76.61l54.54,6.08-3.85,34.55-113.42-12.64Z" fill="#cfd1da" stroke="#272f5a" stroke-miterlimit="10" stroke-width="4.07"/><path d="M524.63,502.41l3.57-32.04c21.27-10.65,36.87-19.95,46.82-28.11,20.37-16.49,32.25-31.94,33.63-44.36,1.04-9.37-4.57-16.4-13.51-17.39-11.33-1.26-18.55,6.1-21.37,23.44l-39.24-4.37c4.2-37.71,30.19-59.09,66.16-55.08,32.91,3.67,52.55,27.48,49.71,52.98-2.87,25.72-19.63,47.47-62.85,76.86l54.71,6.09-3.86,34.66-113.78-12.67Z" fill="#d0d3dc" stroke="#272f5a" stroke-miterlimit="10" stroke-width="4.13"/><path d="M524.66,502.12l3.58-32.14c21.33-10.69,36.98-20.01,46.97-28.2,20.44-16.54,32.35-32.04,33.73-44.5,1.05-9.4-4.59-16.45-13.55-17.45-11.37-1.27-18.61,6.12-21.43,23.52l-39.36-4.38c4.21-37.83,30.29-59.28,66.37-55.26,33.02,3.68,52.72,27.56,49.87,53.15-2.87,25.8-19.69,47.62-63.04,77.11l54.89,6.11-3.87,34.77-114.14-12.71Z" fill="#d2d4dd" stroke="#272f5a" stroke-miterlimit="10" stroke-width="4.19"/><path d="M524.68,501.84l3.59-32.25c21.4-10.72,37.1-20.08,47.12-28.29,20.5-16.6,32.45-32.14,33.84-44.65,1.05-9.43-4.6-16.5-13.6-17.5-11.41-1.27-18.67,6.14-21.5,23.59l-39.48-4.39c4.22-37.95,30.38-59.47,66.57-55.44,33.12,3.68,52.89,27.65,50.03,53.31-2.88,25.88-19.75,47.77-63.24,77.35l55.06,6.13-3.88,34.88-114.51-12.74Z" fill="#d3d5de" stroke="#272f5a" stroke-miterlimit="10" stroke-width="4.25"/><path d="M524.71,501.56l3.6-32.35c21.47-10.76,37.21-20.15,47.26-28.38,20.56-16.65,32.55-32.25,33.94-44.79,1.05-9.46-4.62-16.55-13.64-17.56-11.44-1.27-18.73,6.16-21.57,23.67l-39.61-4.4c4.23-38.07,30.47-59.66,66.78-55.62,33.23,3.69,53.06,27.73,50.19,53.48-2.89,25.97-19.81,47.92-63.43,77.6l55.23,6.14-3.89,34.99-114.87-12.77Z" fill="#d5d7df" stroke="#272f5a" stroke-miterlimit="10" stroke-width="4.31"/><path d="M524.73,501.28l3.61-32.45c21.53-10.79,37.33-20.21,47.41-28.48,20.63-16.7,32.65-32.35,34.04-44.93,1.05-9.49-4.64-16.6-13.69-17.61-11.48-1.28-18.79,6.18-21.63,23.74l-39.73-4.41c4.24-38.19,30.56-59.85,66.98-55.8,33.33,3.7,53.22,27.81,50.35,53.64-2.89,26.05-19.87,48.07-63.62,77.85l55.41,6.16-3.9,35.1-115.23-12.8Z" fill="#d6d8e0" stroke="#272f5a" stroke-miterlimit="10" stroke-width="4.37"/><path d="M524.76,501l3.61-32.55c21.6-10.83,37.45-20.28,47.56-28.57,20.69-16.76,32.75-32.46,34.15-45.08,1.06-9.52-4.65-16.66-13.73-17.66-11.51-1.28-18.85,6.2-21.7,23.82l-39.86-4.43c4.25-38.31,30.65-60.04,67.19-55.98,33.44,3.71,53.39,27.9,50.52,53.8-2.9,26.13-19.93,48.23-63.82,78.1l55.58,6.17-3.91,35.21-115.59-12.83Z" fill="#d8dae1" stroke="#272f5a" stroke-miterlimit="10" stroke-width="4.43"/><path d="M524.78,500.72l3.62-32.65c21.67-10.86,37.56-20.34,47.7-28.66,20.75-16.81,32.85-32.56,34.25-45.22,1.06-9.55-4.67-16.71-13.77-17.72-11.55-1.28-18.9,6.22-21.76,23.89l-39.98-4.44c4.26-38.43,30.74-60.23,67.39-56.16,33.54,3.72,53.56,27.98,50.68,53.97-2.91,26.21-19.98,48.38-64.01,78.35l55.75,6.19-3.92,35.32-115.95-12.87Z" fill="#d9dbe2" stroke="#272f5a" stroke-miterlimit="10" stroke-width="4.49"/><path d="M524.81,500.44l3.63-32.75c21.73-10.9,37.68-20.41,47.85-28.75,20.82-16.86,32.95-32.66,34.35-45.36,1.06-9.58-4.68-16.76-13.82-17.77-11.59-1.28-18.96,6.24-21.83,23.97l-40.11-4.45c4.27-38.55,30.83-60.41,67.6-56.34,33.65,3.73,53.73,28.06,50.84,54.13-2.92,26.29-20.04,48.53-64.2,78.59l55.93,6.2-3.93,35.43-116.31-12.9Z" fill="#dbdde4" stroke="#272f5a" stroke-miterlimit="10" stroke-width="4.55"/><path d="M524.83,500.16l3.64-32.86c21.8-10.93,37.79-20.47,48-28.85,20.88-16.92,33.05-32.77,34.46-45.51,1.06-9.61-4.7-16.81-13.86-17.83-11.62-1.29-19.02,6.26-21.9,24.05l-40.23-4.46c4.29-38.67,30.93-60.6,67.81-56.52,33.75,3.74,53.9,28.15,51,54.3-2.92,26.37-20.1,48.68-64.4,78.84l56.1,6.22-3.94,35.54-116.68-12.93Z" fill="#dcdee5" stroke="#272f5a" stroke-miterlimit="10" stroke-width="4.61"/><path d="M524.86,499.88l3.65-32.96c21.87-10.97,37.91-20.54,48.14-28.94,20.94-16.97,33.14-32.87,34.56-45.65,1.07-9.64-4.71-16.86-13.91-17.88-11.66-1.29-19.08,6.28-21.96,24.12l-40.36-4.47c4.3-38.79,31.02-60.79,68.01-56.7,33.86,3.75,54.07,28.23,51.16,54.46-2.93,26.46-20.16,48.83-64.59,79.09l56.28,6.23-3.95,35.65-117.04-12.96Z" fill="#dedfe6" stroke="#272f5a" stroke-miterlimit="10" stroke-width="4.68"/><path d="M524.88,499.6l3.66-33.06c21.93-11,38.02-20.61,48.29-29.03,21.01-17.03,33.24-32.97,34.66-45.79,1.07-9.67-4.73-16.91-13.95-17.94-11.69-1.29-19.14,6.31-22.03,24.2l-40.48-4.48c4.31-38.91,31.11-60.98,68.22-56.88,33.96,3.76,54.24,28.31,51.32,54.63-2.94,26.54-20.22,48.98-64.78,79.34l56.45,6.25-3.96,35.76-117.4-12.99Z" fill="#dfe1e7" stroke="#272f5a" stroke-miterlimit="10" stroke-width="4.74"/><path d="M524.91,499.32l3.67-33.16c22-11.04,38.14-20.67,48.44-29.12,21.07-17.08,33.34-33.08,34.77-45.94,1.07-9.7-4.75-16.97-13.99-17.99-11.73-1.3-19.2,6.33-22.1,24.27l-40.61-4.49c4.32-39.03,31.2-61.17,68.42-57.06,34.06,3.77,54.4,28.4,51.48,54.79-2.94,26.62-20.28,49.14-64.98,79.59l56.62,6.26-3.97,35.87-117.76-13.03Z" fill="#e1e2e8" stroke="#272f5a" stroke-miterlimit="10" stroke-width="4.8"/><path d="M524.94,499.04l3.68-33.26c22.07-11.07,38.25-20.74,48.58-29.22,21.13-17.13,33.44-33.18,34.87-46.08,1.08-9.73-4.76-17.02-14.04-18.04-11.77-1.3-19.25,6.35-22.16,24.35l-40.73-4.5c4.33-39.15,31.29-61.36,68.63-57.23,34.17,3.78,54.57,28.48,51.65,54.96-2.95,26.7-20.34,49.29-65.17,79.84l56.8,6.28-3.98,35.98-118.12-13.06Z" fill="#e2e4e9" stroke="#272f5a" stroke-miterlimit="10" stroke-width="4.86"/><path d="M524.96,498.76l3.69-33.37c22.13-11.11,38.37-20.8,48.73-29.31,21.2-17.19,33.54-33.28,34.97-46.22,1.08-9.76-4.78-17.07-14.08-18.1-11.8-1.3-19.31,6.37-22.23,24.43l-40.86-4.51c4.34-39.27,31.38-61.55,68.84-57.41,34.27,3.79,54.74,28.56,51.81,55.12-2.96,26.78-20.4,49.44-65.37,80.08l56.97,6.29-3.99,36.09-118.48-13.09Z" fill="#e4e5ea" stroke="#272f5a" stroke-miterlimit="10" stroke-width="4.92"/><path d="M524.99,498.48l3.7-33.47c22.2-11.15,38.48-20.87,48.87-29.4,21.26-17.24,33.64-33.39,35.08-46.36,1.08-9.79-4.79-17.12-14.13-18.15-11.84-1.31-19.37,6.39-22.29,24.5l-40.98-4.52c4.35-39.39,31.47-61.74,69.04-57.59,34.38,3.8,54.91,28.65,51.97,55.28-2.97,26.86-20.45,49.59-65.56,80.33l57.15,6.31-4,36.2-118.84-13.12Z" fill="#e5e7ec" stroke="#272f5a" stroke-miterlimit="10" stroke-width="4.98"/><path d="M525.01,498.2l3.7-33.57c22.27-11.18,38.6-20.94,49.02-29.49,21.32-17.29,33.74-33.49,35.18-46.51,1.08-9.82-4.81-17.17-14.17-18.21-11.88-1.31-19.43,6.41-22.36,24.58l-41.11-4.54c4.36-39.51,31.57-61.93,69.25-57.77,34.48,3.81,55.08,28.73,52.13,55.45-2.97,26.95-20.51,49.74-65.75,80.58l57.32,6.32-4.01,36.31-119.21-13.15Z" fill="#e7e8ed" stroke="#272f5a" stroke-miterlimit="10" stroke-width="5.04"/><path d="M525.04,497.92l3.71-33.67c22.33-11.22,38.72-21,49.17-29.59,21.39-17.35,33.84-33.59,35.28-46.65,1.09-9.85-4.82-17.22-14.22-18.26-11.91-1.31-19.49,6.43-22.43,24.65l-41.23-4.55c4.37-39.63,31.66-62.12,69.45-57.95,34.59,3.81,55.25,28.81,52.29,55.61-2.98,27.03-20.57,49.9-65.95,80.83l57.49,6.34-4.02,36.42-119.57-13.19Z" fill="#e8e9ee" stroke="#272f5a" stroke-miterlimit="10" stroke-width="5.1"/><path d="M525.06,497.64l3.72-33.77c22.4-11.25,38.83-21.07,49.31-29.68,21.45-17.4,33.94-33.7,35.39-46.79,1.09-9.88-4.84-17.28-14.26-18.31-11.95-1.32-19.55,6.45-22.49,24.73l-41.36-4.56c4.38-39.75,31.75-62.31,69.66-58.13,34.69,3.82,55.42,28.9,52.45,55.78-2.99,27.11-20.63,50.05-66.14,81.08l57.67,6.36-4.03,36.53-119.93-13.22Z" fill="#eaebef" stroke="#272f5a" stroke-miterlimit="10" stroke-width="5.16"/><path d="M525.09,497.36l3.73-33.87c22.47-11.29,38.95-21.13,49.46-29.77,21.51-17.46,34.04-33.8,35.49-46.94,1.09-9.91-4.86-17.33-14.3-18.37-11.98-1.32-19.61,6.47-22.56,24.8l-41.48-4.57c4.39-39.87,31.84-62.5,69.86-58.31,34.8,3.83,55.58,28.98,52.61,55.94-3,27.19-20.69,50.2-66.33,81.32l57.84,6.37-4.04,36.64-120.29-13.25Z" fill="#ebecf0" stroke="#272f5a" stroke-miterlimit="10" stroke-width="5.22"/><path d="M525.11,497.07l3.74-33.98c22.53-11.32,39.06-21.2,49.61-29.86,21.58-17.51,34.14-33.91,35.59-47.08,1.09-9.94-4.87-17.38-14.35-18.42-12.02-1.32-19.66,6.49-22.62,24.88l-41.6-4.58c4.4-39.99,31.93-62.69,70.07-58.49,34.9,3.84,55.75,29.06,52.78,56.11-3,27.27-20.75,50.35-66.53,81.57l58.02,6.39-4.05,36.75-120.65-13.28Z" fill="#edeef1" stroke="#272f5a" stroke-miterlimit="10" stroke-width="5.28"/><path d="M525.14,496.79l3.75-34.08c22.6-11.36,39.18-21.27,49.75-29.96,21.64-17.56,34.24-34.01,35.7-47.22,1.1-9.97-4.89-17.43-14.39-18.48-12.06-1.33-19.72,6.51-22.69,24.96l-41.73-4.59c4.41-40.11,32.02-62.88,70.28-58.67,35.01,3.85,55.92,29.15,52.94,56.27-3.01,27.36-20.81,50.5-66.72,81.82l58.19,6.4-4.06,36.86-121.01-13.31Z" fill="#eeeff2" stroke="#272f5a" stroke-miterlimit="10" stroke-width="5.34"/><path d="M525.16,496.51l3.76-34.18c22.67-11.39,39.29-21.33,49.9-30.05,21.7-17.62,34.34-34.11,35.8-47.37,1.1-10-4.9-17.48-14.44-18.53-12.09-1.33-19.78,6.53-22.76,25.03l-41.85-4.6c4.42-40.23,32.11-63.07,70.48-58.85,35.11,3.86,56.09,29.23,53.1,56.43-3.02,27.44-20.87,50.66-66.92,82.07l58.36,6.42-4.06,36.97-121.38-13.35Z" fill="#f0f1f4" stroke="#272f5a" stroke-miterlimit="10" stroke-width="5.4"/><path d="M525.19,496.23l3.77-34.28c22.73-11.43,39.41-21.4,50.05-30.14,21.77-17.67,34.44-34.22,35.9-47.51,1.1-10.03-4.92-17.53-14.48-18.59-12.13-1.33-19.84,6.55-22.82,25.11l-41.98-4.61c4.43-40.35,32.21-63.26,70.69-59.03,35.22,3.87,56.26,29.31,53.26,56.6-3.02,27.52-20.93,50.81-67.11,82.32l58.54,6.43-4.07,37.08-121.74-13.38Z" fill="#f1f2f5" stroke="#272f5a" stroke-miterlimit="10" stroke-width="5.46"/><path d="M525.21,495.95l3.78-34.38c22.8-11.46,39.52-21.46,50.19-30.23,21.83-17.72,34.54-34.32,36.01-47.65,1.1-10.06-4.93-17.59-14.52-18.64-12.16-1.34-19.9,6.57-22.89,25.18l-42.1-4.62c4.44-40.47,32.3-63.45,70.89-59.21,35.32,3.88,56.43,29.4,53.42,56.76-3.03,27.6-20.98,50.96-67.3,82.57l58.71,6.45-4.08,37.19-122.1-13.41Z" fill="#f3f4f6" stroke="#272f5a" stroke-miterlimit="10" stroke-width="5.52"/><path d="M525.24,495.67l3.79-34.49c22.87-11.5,39.64-21.53,50.34-30.33,21.9-17.78,34.64-34.42,36.11-47.8,1.11-10.09-4.95-17.64-14.57-18.69-12.2-1.34-19.96,6.59-22.95,25.26l-42.23-4.64c4.45-40.59,32.39-63.64,71.1-59.39,35.42,3.89,56.6,29.48,53.58,56.93-3.04,27.68-21.04,51.11-67.5,82.81l58.88,6.46-4.09,37.3-122.46-13.44Z" fill="#f4f5f7" stroke="#272f5a" stroke-miterlimit="10" stroke-width="5.58"/><path d="M525.26,495.39l3.79-34.59c22.93-11.53,39.75-21.59,50.49-30.42,21.96-17.83,34.74-34.53,36.21-47.94,1.11-10.12-4.97-17.69-14.61-18.75-12.24-1.34-20.01,6.62-23.02,25.34l-42.35-4.65c4.47-40.71,32.48-63.83,71.3-59.57,35.53,3.9,56.76,29.56,53.74,57.09-3.05,27.76-21.1,51.26-67.69,83.06l59.06,6.48-4.1,37.41-122.82-13.47Z" fill="#f6f6f8" stroke="#272f5a" stroke-miterlimit="10" stroke-width="5.64"/><path d="M525.29,495.11l3.8-34.69c23-11.57,39.87-21.66,50.63-30.51,22.02-17.89,34.84-34.63,36.32-48.08,1.11-10.15-4.98-17.74-14.66-18.8-12.27-1.35-20.07,6.64-23.09,25.41l-42.48-4.66c4.48-40.83,32.57-64.02,71.51-59.75,35.63,3.91,56.93,29.65,53.91,57.26-3.05,27.85-21.16,51.41-67.88,83.31l59.23,6.49-4.11,37.52-123.18-13.51Z" fill="#f7f8f9" stroke="#272f5a" stroke-miterlimit="10" stroke-width="5.7"/><path d="M525.31,494.83l3.81-34.79c23.07-11.6,39.99-21.73,50.78-30.6,22.09-17.94,34.94-34.73,36.42-48.22,1.11-10.18-5-17.79-14.7-18.86-12.31-1.35-20.13,6.66-23.15,25.49l-42.6-4.67c4.49-40.94,32.66-64.2,71.72-59.93,35.74,3.92,57.1,29.73,54.07,57.42-3.06,27.93-21.22,51.57-68.08,83.56l59.41,6.51-4.12,37.63-123.55-13.54Z" fill="#f9f9fa" stroke="#272f5a" stroke-miterlimit="10" stroke-width="5.76"/><path d="M525.34,494.55l3.82-34.89c23.13-11.64,40.1-21.79,50.92-30.7,22.15-17.99,35.04-34.84,36.53-48.37,1.12-10.21-5.01-17.84-14.74-18.91-12.34-1.35-20.19,6.68-23.22,25.56l-42.73-4.68c4.5-41.06,32.75-64.39,71.92-60.11,35.84,3.93,57.27,29.81,54.23,57.59-3.07,28.01-21.28,51.72-68.27,83.81l59.58,6.52-4.13,37.74-123.91-13.57Z" fill="#fafbfc" stroke="#272f5a" stroke-miterlimit="10" stroke-width="5.82"/><path d="M525.36,494.27l3.83-35c23.2-11.67,40.22-21.86,51.07-30.79,22.21-18.05,35.14-34.94,36.63-48.51,1.12-10.24-5.03-17.9-14.79-18.96-12.38-1.35-20.25,6.7-23.28,25.64l-42.85-4.69c4.51-41.18,32.85-64.58,72.13-60.28,35.95,3.93,57.44,29.9,54.39,57.75-3.07,28.09-21.34,51.87-68.46,84.05l59.75,6.54-4.14,37.85-124.27-13.6Z" fill="#fcfcfd" stroke="#272f5a" stroke-miterlimit="10" stroke-width="5.88"/><path d="M525.39,493.99l3.84-35.1c23.27-11.71,40.33-21.92,51.22-30.88,22.28-18.1,35.24-35.04,36.73-48.65,1.12-10.27-5.04-17.95-14.83-19.02-12.42-1.36-20.31,6.72-23.35,25.71l-42.98-4.7c4.52-41.3,32.94-64.77,72.33-60.46,36.05,3.94,57.61,29.98,54.55,57.91-3.08,28.17-21.4,52.02-68.66,84.3l59.93,6.56-4.15,37.96-124.63-13.63Z" fill="#fdfefe" stroke="#272f5a" stroke-miterlimit="10" stroke-width="5.94"/><text transform="translate(513.2 492.37) rotate(6.24)" fill="#fff" font-family="ITCAvantGardePro-Bold, &apos;ITC Avant Garde Gothic Pro&apos;" font-size="240.88" font-weight="700" stroke="#272f5a" stroke-miterlimit="10" stroke-width="6"><tspan x="0" y="0">2</tspan></text><path d="M548.25,330.77l1.53-8.69-8.67,1.67c-8.19,1.58-12.19,2.33-20.4,3.83l-4.46.82-.49,4.51c-.67,6.18-1.18,10.81-1.72,15.38-2.93-4.35-5.72-8.51-9.48-14.13l-2.2-3.29-3.9.67c-8.27,1.43-12.33,2.12-20.67,3.48l-1.21.2-2.62.42c-16.13,2.61-32.45,5.07-48.53,7.31l-6.31.88,1.29,6.86c-.35-.2-.7-.41-1.06-.59-6.18-3.25-14.96-4.16-26.83-2.79l-.94.11c-6.83.85-11.28,1.39-16.67,2.01-2.36.27-4.91.56-7.91.9l-3.99.45-3.02.33c-14.16,1.55-28.51,2.98-42.65,4.25l-2.27.2-2.21.19c-7.82.69-11.65,1.01-19.48,1.62l-4.87.38-.67,4.84c-.07.5-.14,1-.21,1.5l-10.83-5.48-4.85.33c-5.92.41-8.88.6-14.81.97l-4.69,1.74-.83,2.95-10.32-1.27-.61-2.46-5.01.26c-7.95.41-11.8.6-19.64.94l-7.68.33.96,3.39-12.29,1.09c-6.88-3.52-14.42-5.27-21.84-4.95-1.01.04-2.03.12-3.03.24-23.4,2.7-43.09,25.36-43.89,50.51-.34,10.65,3.26,21.01,9.99,29.26h0s.14.16.14.16c.83,1.01,1.7,1.99,2.63,2.94l20.04,22.42c.27.3.53.61.81.9l.14.16h0c.37.39.73.78,1.11,1.17,3.23,3.22,6.86,5.8,10.73,7.67-4.47,7.6-7.19,16.21-7.52,25.14-.3,7.99,1.89,15.54,6.23,21.92h0s.04.05.04.05c.93,1.36,1.95,2.66,3.07,3.9l16.27,20.63c.86,1.23,1.78,2.41,2.79,3.54h0s0,.01,0,.01c.44.49.89.97,1.36,1.44,8.66,8.69,21.16,12.99,33.44,11.5h0c1-.12,2-.28,2.97-.48,11.71-2.35,24.59-10.03,33.23-21.62l6.2,12.54,6.21-1.12c14.11-2.54,28.5-4.97,42.76-7.23l2.28-.36,1.5-.23c8.69-1.36,12.92-2,21.53-3.26l3.71-.54.93-3.92c.67-2.8,1.11-4.69,1.62-6.85,7.3-1.03,12.21-1.69,19.54-2.65.97,1.92,1.83,3.61,3.1,6.1l1.84,3.61,3.76-.49c6.12-.79,10.09-1.29,14.93-1.88,2.06-.25,15.83-1.88,15.83-1.88l-2.33-3.92c6.31,3.06,13.61,4.15,20.49,3.31.27-.03.54-.07.81-.11,5.17-.74,17.93-3.57,24.64-13.86.18-.27.33-.56.49-.84l1.97,10.67,5.01-.45c8.08-.73,12-1.06,19.98-1.7l6.37-.51,6.88-24.39h0s0,0,0,0l-1.11-5.23c.8-.07,1.61-.14,2.47-.22l6.23,28.77,4.76-.33c8.07-.55,11.99-.8,20.01-1.28l6.72-.4,10.79-24.58h0s-15.14-61.82-15.14-61.82l5.25-.64,11.23-24.6h0s-8.38-32.31-8.38-32.31c3.42-16.48,6.64-33.32,9.58-50.07Z" fill="#272f5a" stroke-width="0"/><path d="M221.54,445.98c-1.51.28-3.12.57-5.06.8-10.99,1.28-16.64-1.98-18.81-3.97-9.18,6.63-17.12,8.1-22.35,8.75-22.54,2.81-41.65-16.6-40.95-38.66.69-21.72,18.48-43.9,41.1-44.87,20.76-.88,40.8,17.15,41.34,37.98.33,12.71-4.06,19.65-6.04,22.88,2.49,1.95,5.7,2.04,10.4,1.56.14,6.21.22,9.32.36,15.53ZM175.39,386.07c-9.02.39-16.45,6.39-19.75,16.69-.33,1.13-.77,2.16-.89,3.39,2.32-.92,6.32-2.7,11.45-3.01,5.66-.34,10.56.59,16.44,4.37,5.14,3.3,8.21,6.06,12.26,10.18,1.25-2.55,2.03-6.15,2.03-10.15,0-12-9.18-21.97-21.45-21.48h-.1ZM175.29,433.53c3.2-.31,6.4-1.27,7.99-2.39-2.45-3-4.67-4.96-6.68-6.52-4.02-3.12-8.66-4.07-12.57-3.75-3.39.27-5.72,1.01-7.32,1.8,3.26,8.28,11.97,11.5,18.47,10.87.04,0,.06,0,.11-.01Z" fill="#fff" stroke-width="0"/><path d="M216.32,368.17c7.88-.34,11.82-.53,19.69-.94,3.99,16.04,8.12,32.05,12.39,48.02,3.14-16.4,6.18-32.82,9.13-49.25,5.94-.37,8.91-.56,14.85-.97,4.67,15.59,9.5,31.14,14.47,46.64,2.44-16.06,4.79-32.14,7.02-48.23,7.81-.62,11.72-.94,19.53-1.63-4.56,24.69-9.38,49.32-14.44,73.91-7.16.82-10.74,1.24-17.89,2.06-5.1-15.37-10.04-30.8-14.83-46.27-3.01,16.37-6.11,32.72-9.31,49.05-7.37.85-11.06,1.27-18.42,2.12-7.76-24.73-15.15-49.56-22.19-74.5Z" fill="#fff" stroke-width="0"/><path d="M317.9,361.41c14.27-1.28,28.52-2.7,42.77-4.26.84,6.32,1.26,9.47,2.1,15.79-9.5,1.05-14.25,1.56-23.76,2.54.5,4.4.75,6.6,1.25,11,9.3-.98,13.95-1.48,23.24-2.52.84,6.32,1.25,9.47,2.09,15.79-9.41,1.06-14.12,1.59-23.53,2.61.55,4.86.83,7.29,1.38,12.15,9.8-1.1,14.7-1.65,24.5-2.77.84,6.32,1.26,9.47,2.1,15.79-15.06,1.74-30.12,3.48-45.17,5.21-2.31-23.78-4.63-47.55-6.94-71.33Z" fill="#fff" stroke-width="0"/><path d="M367.69,356.37c9.86-1.11,14.79-1.7,24.64-2.92,11.8-1.46,19.46-.46,24.19,2.03,7.14,3.72,11.33,10.29,12.77,18,1.01,5.43.13,9.85-1.5,13.25-1.93,4.04-5.31,6.89-8.75,8.76,8.27,9.55,12.47,14.33,21.02,23.94-8.4.97-12.61,1.46-21.01,2.43-8.76-10.43-17.44-20.91-26.06-31.47,1.3-.15,1.95-.23,3.25-.39,5.03-.6,9.29-1.5,11.64-3.34,2.17-1.7,3.58-5.29,2.92-9.18-.63-3.7-3.12-6.43-5.94-7.6-2.35-.97-5.57-1.24-8.26-.91-2.89.35-4.33.53-7.22.88,2.81,18.15,5.63,36.31,8.44,54.46-8.15.94-12.22,1.41-20.37,2.35-3.25-23.44-6.5-46.87-9.76-70.31Z" fill="#fff" stroke-width="0"/><path d="M444.28,362.74c-6.01.84-9.01,1.25-15.02,2.05-1.19-6.33-1.78-9.49-2.97-15.82,16.25-2.27,32.47-4.71,48.66-7.33,1.46,6.45,2.19,9.67,3.65,16.12-5.95.9-8.93,1.34-14.89,2.21,3.97,18.45,7.94,36.89,11.9,55.34-8.14.94-12.21,1.42-20.36,2.36-3.66-18.31-7.32-36.62-10.98-54.93Z" fill="#fff" stroke-width="0"/><path d="M512.56,383.73c-11.32-14.18-22.59-28.42-33.77-42.71,8.3-1.36,12.44-2.05,20.72-3.49,7.31,10.94,11.02,16.45,18.57,27.56,1.62-12.5,2.36-18.8,3.74-31.53,8.19-1.5,12.28-2.27,20.45-3.84-3.01,17.15-6.28,34.23-9.83,51.28,2.79,10.77,4.19,16.15,6.99,26.92-8.13.94-12.19,1.42-20.33,2.36-2.61-10.62-3.92-15.93-6.53-26.54Z" fill="#fff" stroke-width="0"/><path d="M257.66,498.73c-4.3,18.95-22.82,33.56-41.22,37.04-21.01,3.97-44.88-9.5-44-33.01.86-23.02,19.61-43.63,42.26-46.98,16.74-2.47,37.36,7.38,42.12,24.65-8.76,1.25-13.13,1.88-21.88,3.16-2.5-5.29-8.93-12.12-20.02-10.5-12.75,1.86-21.41,13.51-21.54,26.06-.12,12.28,10.1,21.72,22.51,19.36,13.09-2.48,18.38-13.41,19.63-16.29,8.85-1.43,13.28-2.12,22.14-3.49Z" fill="#fff" stroke-width="0"/><path d="M262.36,451.33c8.21-1.01,12.31-1.51,20.52-2.5,1.23,18.87,2.46,37.74,3.69,56.61,9.88-1.5,14.83-2.23,24.72-3.65.53,6.46.8,9.69,1.34,16.15-15.53,2.33-31.04,4.8-46.53,7.43-1.25-24.68-2.49-49.35-3.74-74.03Z" fill="#fff" stroke-width="0"/><path d="M340.16,513.97c-9.38,1.3-14.06,1.97-23.43,3.35,8.86-25.11,17.45-50.3,25.69-75.62,7.09-.84,10.63-1.25,17.72-2.08,13.4,22.45,27.17,44.64,41.29,66.65-9.49,1.07-14.24,1.63-23.72,2.8-2.14-3.88-3.2-5.81-5.31-9.69-11.78,1.45-17.66,2.21-29.43,3.79-1.11,4.32-1.67,6.48-2.8,10.81ZM352.86,462.27c-2.39,10.29-3.61,15.45-6.13,25.8,7.33-.94,11-1.41,18.33-2.31-4.95-9.38-7.39-14.07-12.2-23.49Z" fill="#fff" stroke-width="0"/><path d="M418.49,480.74c1.34,8.16,7.59,8.95,10.32,8.67,5.11-.53,7.56-4.35,6.99-7.58-.65-3.71-4.39-4.51-17.93-7.68-6.16-1.36-21.58-4.86-23.29-17.86-1.88-14.29,12.18-23.57,24.91-24.86,13.71-1.39,27.74,4.3,31.24,18.89-8.27.87-12.4,1.31-20.66,2.21-.86-2.33-2.3-6.72-8.68-6.02-3.63.4-6.78,2.98-6.24,6.3.53,3.23,2.83,3.82,18.63,7.94,16.38,4.27,21.49,10.13,23.13,18.23,3.23,15.89-12.1,23.63-25.32,25.43-14.96,2.03-32.2-4.62-34.3-21.3,8.48-.97,12.71-1.44,21.19-2.35Z" fill="#fff" stroke-width="0"/><path d="M466.74,499.74c-4.63-23.57-9.26-47.15-13.89-70.72,8.22-.92,12.32-1.37,20.54-2.28,2.27,10.7,3.4,16.05,5.66,26.75,10.75-1.05,16.12-1.57,26.87-2.56-2.5-10.83-3.75-16.25-6.25-27.08,8.21-.9,12.32-1.34,20.53-2.23,5.95,24.32,11.91,48.63,17.86,72.95-8.71.51-13.06.78-21.76,1.36-2.66-11.53-3.99-17.3-6.65-28.83-10.89.91-16.34,1.38-27.22,2.37,2.41,11.39,3.62,17.09,6.03,28.49-8.69.68-13.04,1.04-21.73,1.79Z" fill="#fff" stroke-width="0"/></g><g id="Layer_1_copy_3"><path d="M619.28,456.29c.14-.17.27-.34.41-.51.14-.17.27-.33.4-.5.14-.17.27-.33.4-.5.14-.17.27-.33.4-.5.13-.16.25-.31.38-.47.15-.18.29-.36.43-.54.14-.17.27-.33.4-.5.13-.16.25-.31.38-.47.14-.18.29-.36.43-.54.12-.15.25-.31.37-.46.15-.18.29-.36.43-.54.13-.16.25-.31.38-.47.13-.17.27-.33.4-.5.13-.17.27-.33.4-.5.14-.18.29-.36.43-.54.13-.16.25-.31.38-.47.14-.17.27-.34.41-.51.13-.17.27-.33.4-.5.13-.17.27-.33.4-.5.13-.16.26-.31.38-.47.14-.18.29-.36.43-.53.14-.17.27-.34.41-.51.13-.17.27-.33.4-.5.13-.16.25-.31.38-.47.14-.18.29-.36.43-.53.13-.16.26-.31.38-.47.14-.18.29-.36.43-.54.13-.16.25-.31.38-.47.14-.18.29-.36.43-.54.12-.15.25-.31.37-.46.13-.17.27-.34.41-.5.14-.18.29-.36.43-.54.12-.15.25-.31.38-.46.13-.17.27-.34.41-.5.13-.17.27-.33.4-.5.13-.17.27-.33.4-.5.13-.17.28-.34.41-.51.13-.17.27-.33.4-.5.13-.17.27-.34.41-.5.13-.17.27-.33.4-.5.13-.17.27-.33.4-.5.13-.17.27-.34.41-.5.02-.02.03-.04.05-.06.11-.14.23-.27.33-.41.14-.18.29-.36.43-.54.05-.06.1-.12.14-.18.27-.33.53-.65.79-.98.14-.17.28-.35.42-.52.13-.16.25-.31.38-.47.15-.18.29-.36.43-.53.13-.15.24-.3.37-.46.14-.17.27-.33.4-.5.14-.16.26-.33.4-.49.15-.18.29-.36.44-.54.13-.15.24-.31.37-.46.14-.16.26-.33.4-.49.14-.17.27-.33.4-.5.14-.16.26-.33.4-.49.14-.17.27-.33.4-.5.14-.17.27-.33.4-.5.14-.17.26-.33.4-.5.14-.17.27-.33.4-.5.12-.15.24-.3.36-.45.15-.18.29-.36.44-.54.14-.17.27-.33.4-.5.14-.17.27-.33.4-.5.14-.17.27-.33.4-.5.12-.15.24-.3.36-.45.15-.18.29-.36.44-.54,11.52-14.04,17.39-27.79,19.06-43.05,3.39-30.95-21.2-57.25-57.18-61.19-41.24-4.51-70.92,20.25-75.61,63.09l-.32,2.95h.05s-.06.58-.06.58h.05s-.06.58-.06.58h.05s-.06.58-.06.58h.05s-.06.58-.06.58h.05s-.06.58-.06.58h.05s-.06.58-.06.58h.05s-.06.58-.06.58h.05s-.06.58-.06.58h.05s-.06.58-.06.58h.05s-.06.58-.06.58h.05s-.06.58-.06.58h.05s-.06.58-.06.58h.05s-.06.58-.06.58h.05s-.06.58-.06.58h.05s-.06.58-.06.58h.05s-.06.58-.06.58h.05s-.06.58-.06.58h.05s-.06.58-.06.58h.05s-.06.58-.06.58h.05s-.06.58-.06.58h.05s-.06.58-.06.58h.05s-.06.58-.06.58h.05s-.06.58-.06.58h.05s-.06.58-.06.58h.05s-.06.58-.06.58h.05s-.06.58-.06.58h.05s-.06.58-.06.58h.05s-.06.58-.06.58h.05s-.06.58-.06.58h.05s-.06.58-.06.58h.05s-.06.58-.06.58h.05s-.06.58-.06.58h.05s-.06.58-.06.58h.05s-.06.58-.06.58h.05s-.06.58-.06.58h.05s-.06.58-.06.58h.05s-.06.58-.06.58h.05s-.06.58-.06.58h.05s-.06.58-.06.58h.05s-.06.58-.06.58h.05s-.06.58-.06.58h.05s-.06.58-.06.58h.05s-.06.58-.06.58h.05s-.06.58-.06.58h.05s-.06.58-.06.58h.05s-.06.58-.06.58h.05s-.06.58-.06.58h.05s-.06.58-.06.58h.05s-.06.58-.06.58h.05s-.06.58-.06.58h.05s-.06.58-.06.58h.05s-.06.58-.06.58h.05s-.06.58-.06.58h.05s-.07.58-.07.58h.05s-.06.58-.06.58h.05s-.06.58-.06.58h.05s-.07.58-.07.58h.05s-.07.58-.07.58h.05s-.07.58-.07.58h.05s-.07.58-.07.58h.05s-.07.58-.07.58h.05s-.07.58-.07.58h.05s-.07.58-.07.58h.05s-.07.58-.07.58h.05s-.07.58-.07.58h.05s-.07.58-.07.58h.05s-.07.58-.07.58h.05s-.07.58-.07.58h.05s-.07.58-.07.58h.05s-.07.58-.07.58h.05s-.07.58-.07.58h.05s-.07.58-.07.58h.05s-.07.58-.07.58h.05s-.07.58-.07.58l35.19,4.05.1-.57h.1s.1-.56.1-.56h.1s.1-.56.1-.56h.1s.1-.56.1-.56h.1s.1-.56.1-.56h.1s.1-.56.1-.56h.1s.1-.56.1-.56h.1s.1-.56.1-.56h.1s.09-.56.09-.56h.1s.1-.56.1-.56h.1s.1-.56.1-.56h.1s.1-.56.1-.56h.1s.09-.56.09-.56h.1s.09-.56.09-.56h.1s.09-.56.09-.56h.1s.09-.56.09-.56h.1s.09-.56.09-.56h.1s.09-.56.09-.56h.1s.09-.56.09-.56h.1s.09-.56.09-.56h.1s.09-.56.09-.56h.1s.09-.56.09-.56h.1s.09-.56.09-.56h.1s.09-.56.09-.56h.1s.09-.56.09-.56h.1s.09-.56.09-.56h.1s.04-.24.04-.24c3.04-4.16,7.2-5.9,12.54-5.29,2.97.34,5.45,1.48,7.3,3.19-3.94,3.83-8.36,7.75-13.25,11.72-10.58,8.71-27.15,18.69-50.67,30.52l-1.44.73-4.34,39.65h.04s-.03.25-.03.25h.04s-.03.25-.03.25h.04s-.03.25-.03.25h.04s-.03.25-.03.25h.04s-.03.25-.03.25h.04s-.03.25-.03.25h.04s-.03.25-.03.25h.04s-.03.25-.03.25h.04s-.03.25-.03.25h.04s-.03.25-.03.25h.04s-.03.25-.03.25h.04s-.03.25-.03.25h.04s-.03.25-.03.25h.04s-.03.25-.03.25h.04s-.03.25-.03.25h.04s-.03.25-.03.25h.04s-.03.25-.03.25h.04s-.03.25-.03.25h.04s-.03.25-.03.25h.04s-.03.25-.03.25h.04s-.03.25-.03.25h.04s-.03.25-.03.25h.04s-.03.25-.03.25h.04s-.03.25-.03.25h.04s-.03.25-.03.25h.04s-.03.25-.03.25h.04s-.03.25-.03.25h.04s-.03.25-.03.25h.04s-.03.25-.03.25h.04s-.03.25-.03.25h.04s-.03.25-.03.25h.04s-.03.25-.03.25h.04s-.03.25-.03.25h.04s-.03.25-.03.25h.04s-.03.25-.03.25h.04s-.03.25-.03.25h.04s-.03.25-.03.25h.04s-.03.25-.03.25h.04s-.03.25-.03.25h.04s-.03.25-.03.25h.04s-.03.25-.03.25h.04s-.03.25-.03.25h.04s-.03.25-.03.25h.04s-.03.25-.03.25h.04s-.03.25-.03.25h.04s-.03.25-.03.25h.04s-.03.25-.03.25h.04s-.03.25-.03.25h.04s-.03.25-.03.25h.04s-.03.25-.03.25h.04s-.03.25-.03.25h.04s-.03.25-.03.25h.04s-.03.25-.03.25h.04s-.03.25-.03.25h.04s-.03.25-.03.25h.04s-.03.25-.03.25h.04s-.03.25-.03.25h.04s-.03.25-.03.25h.04s-.03.25-.03.25h.04s-.03.25-.03.25h.04s-.03.25-.03.25h.04s-.03.25-.03.25h.04s-.03.25-.03.25h.04s-.03.25-.03.25h.04s-.03.25-.03.25h.04s-.03.25-.03.25h.04s-.03.25-.03.25h.04s-.03.25-.03.25h.04s-.03.25-.03.25h.04s-.03.25-.03.25h.04s-.03.25-.03.25h.04s-.03.25-.03.25h.04s-.03.25-.03.25h.04s-.03.25-.03.25l99.34,11.44.03-.26.38.04.03-.26.38.04.03-.26.38.04.03-.26.38.04.03-.26.38.04.03-.26.38.04.03-.26.38.04.03-.26.38.04.03-.26.38.04.03-.26.38.04.03-.26.38.04.03-.26.38.04.03-.26.38.04.03-.26.38.04.03-.26.38.04.03-.26.38.04.03-.26.38.04.03-.26.38.04.03-.26.38.04.03-.26.38.04.03-.26.38.04.03-.26.38.04.03-.26.38.04.03-.26.38.04.03-.26.38.04.03-.26.38.04.03-.26.38.04.03-.26.38.04.03-.26.38.04.03-.26.38.04.03-.26.38.04.03-.26.38.04.03-.26.38.04.03-.26.38.04.03-.26.38.04.03-.26.38.04.03-.26.38.04.03-.26.38.04.03-.26.38.04.03-.26.38.04.03-.26.38.04.03-.26.38.04.03-.26.38.04.03-.26.38.04.03-.26.38.04.03-.26.38.04.03-.26.38.04.03-.26.38.04.03-.26.39.04.03-.26.38.04.03-.26.38.04.03-.26.38.04.03-.26.39.04.03-.26.38.04.03-.26.39.04.03-.26.38.04.03-.26.39.04.03-.26.38.04.03-.26.39.04.03-.26.39.04.03-.26.39.04.03-.26.39.04.03-.26.39.04.03-.26.39.04.03-.26.39.04.03-.26.39.04.03-.26.39.04.03-.26.39.04.03-.26.39.04.03-.26.39.04.03-.26.39.04.03-.26.39.04.03-.26.39.04.03-.26.39.04,4.8-43.87-43.36-4.74c1.72-1.84,3.32-3.68,4.79-5.5.14-.17.27-.33.4-.5Z" fill="#272f5a" stroke-width="0"/><path d="M586.07,464.83l6.7-4.58c45.54-31.11,64.48-54.21,67.56-82.4,3.02-27.65-19.36-51.19-52.06-54.77-36.79-4.02-63.53,17.49-68.86,55.01l37.28,4.08c3.62-18.42,12.43-26.99,26.2-25.49,11.62,1.27,18.83,10.47,17.53,22.38-1.57,14.34-14.68,31.91-37.93,50.8-10.72,8.82-27.24,18.84-50.45,30.59l-3.35,30.6,119.03,13.01,3.51-32.11-65.19-7.13Z" fill="#fff" stroke-width="0"/></g><g id="Layer_1_copy_2"><path d="M548.25,330.77l1.53-8.69-8.67,1.67c-8.19,1.58-12.19,2.33-20.4,3.83l-4.46.82-.49,4.51c-.67,6.18-1.18,10.81-1.72,15.38-2.93-4.35-5.72-8.51-9.48-14.13l-2.2-3.29-3.9.67c-8.27,1.43-12.33,2.12-20.67,3.48l-1.21.2-2.62.42c-16.13,2.61-32.45,5.07-48.53,7.31l-6.31.88,1.29,6.86c-.35-.2-.7-.41-1.06-.59-6.18-3.25-14.96-4.16-26.83-2.79l-.94.11c-6.83.85-11.28,1.39-16.67,2.01-2.36.27-4.91.56-7.91.9l-3.99.45-3.02.33c-14.16,1.55-28.51,2.98-42.65,4.25l-2.27.2-2.21.19c-7.82.69-11.65,1.01-19.48,1.62l-4.87.38-.67,4.84c-.07.5-.14,1-.21,1.5l-10.83-5.48-4.85.33c-5.92.41-8.88.6-14.81.97l-4.69,1.74-.83,2.95-10.32-1.27-.61-2.46-5.01.26c-7.95.41-11.8.6-19.64.94l-7.68.33.96,3.39-12.29,1.09c-6.88-3.52-14.42-5.27-21.84-4.95-1.01.04-2.03.12-3.03.24-23.4,2.7-43.09,25.36-43.89,50.51-.34,10.65,3.26,21.01,9.99,29.26h0s.14.16.14.16c.83,1.01,1.7,1.99,2.63,2.94l20.04,22.42c.27.3.53.61.81.9l.14.16h0c.37.39.73.78,1.11,1.17,3.23,3.22,6.86,5.8,10.73,7.67-4.47,7.6-7.19,16.21-7.52,25.14-.3,7.99,1.89,15.54,6.23,21.92h0s.04.05.04.05c.93,1.36,1.95,2.66,3.07,3.9l16.27,20.63c.86,1.23,1.78,2.41,2.79,3.54h0s0,.01,0,.01c.44.49.89.97,1.36,1.44,8.66,8.69,21.16,12.99,33.44,11.5h0c1-.12,2-.28,2.97-.48,11.71-2.35,24.59-10.03,33.23-21.62l6.2,12.54,6.21-1.12c14.11-2.54,28.5-4.97,42.76-7.23l2.28-.36,1.5-.23c8.69-1.36,12.92-2,21.53-3.26l3.71-.54.93-3.92c.67-2.8,1.11-4.69,1.62-6.85,7.3-1.03,12.21-1.69,19.54-2.65.97,1.92,1.83,3.61,3.1,6.1l1.84,3.61,3.76-.49c6.12-.79,10.09-1.29,14.93-1.88,2.06-.25,15.83-1.88,15.83-1.88l-2.33-3.92c6.31,3.06,13.61,4.15,20.49,3.31.27-.03.54-.07.81-.11,5.17-.74,17.93-3.57,24.64-13.86.18-.27.33-.56.49-.84l1.97,10.67,5.01-.45c8.08-.73,12-1.06,19.98-1.7l6.37-.51,6.88-24.39h0s0,0,0,0l-1.11-5.23c.8-.07,1.61-.14,2.47-.22l6.23,28.77,4.76-.33c8.07-.55,11.99-.8,20.01-1.28l6.72-.4,10.79-24.58h0s-15.14-61.82-15.14-61.82l5.25-.64,11.23-24.6h0s-8.38-32.31-8.38-32.31c3.42-16.48,6.64-33.32,9.58-50.07Z" fill="#272f5a" stroke-width="0"/><path d="M221.54,445.98c-1.51.28-3.12.57-5.06.8-10.99,1.28-16.64-1.98-18.81-3.97-9.18,6.63-17.12,8.1-22.35,8.75-22.54,2.81-41.65-16.6-40.95-38.66.69-21.72,18.48-43.9,41.1-44.87,20.76-.88,40.8,17.15,41.34,37.98.33,12.71-4.06,19.65-6.04,22.88,2.49,1.95,5.7,2.04,10.4,1.56.14,6.21.22,9.32.36,15.53ZM175.39,386.07c-9.02.39-16.45,6.39-19.75,16.69-.33,1.13-.77,2.16-.89,3.39,2.32-.92,6.32-2.7,11.45-3.01,5.66-.34,10.56.59,16.44,4.37,5.14,3.3,8.21,6.06,12.26,10.18,1.25-2.55,2.03-6.15,2.03-10.15,0-12-9.18-21.97-21.45-21.48h-.1ZM175.29,433.53c3.2-.31,6.4-1.27,7.99-2.39-2.45-3-4.67-4.96-6.68-6.52-4.02-3.12-8.66-4.07-12.57-3.75-3.39.27-5.72,1.01-7.32,1.8,3.26,8.28,11.97,11.5,18.47,10.87.04,0,.06,0,.11-.01Z" fill="#fff" stroke-width="0"/><path d="M216.32,368.17c7.88-.34,11.82-.53,19.69-.94,3.99,16.04,8.12,32.05,12.39,48.02,3.14-16.4,6.18-32.82,9.13-49.25,5.94-.37,8.91-.56,14.85-.97,4.67,15.59,9.5,31.14,14.47,46.64,2.44-16.06,4.79-32.14,7.02-48.23,7.81-.62,11.72-.94,19.53-1.63-4.56,24.69-9.38,49.32-14.44,73.91-7.16.82-10.74,1.24-17.89,2.06-5.1-15.37-10.04-30.8-14.83-46.27-3.01,16.37-6.11,32.72-9.31,49.05-7.37.85-11.06,1.27-18.42,2.12-7.76-24.73-15.15-49.56-22.19-74.5Z" fill="#fff" stroke-width="0"/><path d="M317.9,361.41c14.27-1.28,28.52-2.7,42.77-4.26.84,6.32,1.26,9.47,2.1,15.79-9.5,1.05-14.25,1.56-23.76,2.54.5,4.4.75,6.6,1.25,11,9.3-.98,13.95-1.48,23.24-2.52.84,6.32,1.25,9.47,2.09,15.79-9.41,1.06-14.12,1.59-23.53,2.61.55,4.86.83,7.29,1.38,12.15,9.8-1.1,14.7-1.65,24.5-2.77.84,6.32,1.26,9.47,2.1,15.79-15.06,1.74-30.12,3.48-45.17,5.21-2.31-23.78-4.63-47.55-6.94-71.33Z" fill="#fff" stroke-width="0"/><path d="M367.69,356.37c9.86-1.11,14.79-1.7,24.64-2.92,11.8-1.46,19.46-.46,24.19,2.03,7.14,3.72,11.33,10.29,12.77,18,1.01,5.43.13,9.85-1.5,13.25-1.93,4.04-5.31,6.89-8.75,8.76,8.27,9.55,12.47,14.33,21.02,23.94-8.4.97-12.61,1.46-21.01,2.43-8.76-10.43-17.44-20.91-26.06-31.47,1.3-.15,1.95-.23,3.25-.39,5.03-.6,9.29-1.5,11.64-3.34,2.17-1.7,3.58-5.29,2.92-9.18-.63-3.7-3.12-6.43-5.94-7.6-2.35-.97-5.57-1.24-8.26-.91-2.89.35-4.33.53-7.22.88,2.81,18.15,5.63,36.31,8.44,54.46-8.15.94-12.22,1.41-20.37,2.35-3.25-23.44-6.5-46.87-9.76-70.31Z" fill="#fff" stroke-width="0"/><path d="M444.28,362.74c-6.01.84-9.01,1.25-15.02,2.05-1.19-6.33-1.78-9.49-2.97-15.82,16.25-2.27,32.47-4.71,48.66-7.33,1.46,6.45,2.19,9.67,3.65,16.12-5.95.9-8.93,1.34-14.89,2.21,3.97,18.45,7.94,36.89,11.9,55.34-8.14.94-12.21,1.42-20.36,2.36-3.66-18.31-7.32-36.62-10.98-54.93Z" fill="#fff" stroke-width="0"/><path d="M512.56,383.73c-11.32-14.18-22.59-28.42-33.77-42.71,8.3-1.36,12.44-2.05,20.72-3.49,7.31,10.94,11.02,16.45,18.57,27.56,1.62-12.5,2.36-18.8,3.74-31.53,8.19-1.5,12.28-2.27,20.45-3.84-3.01,17.15-6.28,34.23-9.83,51.28,2.79,10.77,4.19,16.15,6.99,26.92-8.13.94-12.19,1.42-20.33,2.36-2.61-10.62-3.92-15.93-6.53-26.54Z" fill="#fff" stroke-width="0"/><path d="M257.66,498.73c-4.3,18.95-22.82,33.56-41.22,37.04-21.01,3.97-44.88-9.5-44-33.01.86-23.02,19.61-43.63,42.26-46.98,16.74-2.47,37.36,7.38,42.12,24.65-8.76,1.25-13.13,1.88-21.88,3.16-2.5-5.29-8.93-12.12-20.02-10.5-12.75,1.86-21.41,13.51-21.54,26.06-.12,12.28,10.1,21.72,22.51,19.36,13.09-2.48,18.38-13.41,19.63-16.29,8.85-1.43,13.28-2.12,22.14-3.49Z" fill="#fff" stroke-width="0"/><path d="M262.36,451.33c8.21-1.01,12.31-1.51,20.52-2.5,1.23,18.87,2.46,37.74,3.69,56.61,9.88-1.5,14.83-2.23,24.72-3.65.53,6.46.8,9.69,1.34,16.15-15.53,2.33-31.04,4.8-46.53,7.43-1.25-24.68-2.49-49.35-3.74-74.03Z" fill="#fff" stroke-width="0"/><path d="M340.16,513.97c-9.38,1.3-14.06,1.97-23.43,3.35,8.86-25.11,17.45-50.3,25.69-75.62,7.09-.84,10.63-1.25,17.72-2.08,13.4,22.45,27.17,44.64,41.29,66.65-9.49,1.07-14.24,1.63-23.72,2.8-2.14-3.88-3.2-5.81-5.31-9.69-11.78,1.45-17.66,2.21-29.43,3.79-1.11,4.32-1.67,6.48-2.8,10.81ZM352.86,462.27c-2.39,10.29-3.61,15.45-6.13,25.8,7.33-.94,11-1.41,18.33-2.31-4.95-9.38-7.39-14.07-12.2-23.49Z" fill="#fff" stroke-width="0"/><path d="M418.49,480.74c1.34,8.16,7.59,8.95,10.32,8.67,5.11-.53,7.56-4.35,6.99-7.58-.65-3.71-4.39-4.51-17.93-7.68-6.16-1.36-21.58-4.86-23.29-17.86-1.88-14.29,12.18-23.57,24.91-24.86,13.71-1.39,27.74,4.3,31.24,18.89-8.27.87-12.4,1.31-20.66,2.21-.86-2.33-2.3-6.72-8.68-6.02-3.63.4-6.78,2.98-6.24,6.3.53,3.23,2.83,3.82,18.63,7.94,16.38,4.27,21.49,10.13,23.13,18.23,3.23,15.89-12.1,23.63-25.32,25.43-14.96,2.03-32.2-4.62-34.3-21.3,8.48-.97,12.71-1.44,21.19-2.35Z" fill="#fff" stroke-width="0"/><path d="M466.74,499.74c-4.63-23.57-9.26-47.15-13.89-70.72,8.22-.92,12.32-1.37,20.54-2.28,2.27,10.7,3.4,16.05,5.66,26.75,10.75-1.05,16.12-1.57,26.87-2.56-2.5-10.83-3.75-16.25-6.25-27.08,8.21-.9,12.32-1.34,20.53-2.23,5.95,24.32,11.91,48.63,17.86,72.95-8.71.51-13.06.78-21.76,1.36-2.66-11.53-3.99-17.3-6.65-28.83-10.89.91-16.34,1.38-27.22,2.37,2.41,11.39,3.62,17.09,6.03,28.49-8.69.68-13.04,1.04-21.73,1.79Z" fill="#fff" stroke-width="0"/></g></svg>